<?xml version="1.0" encoding="UTF-8" standalone="no"?>
<!DOCTYPE svg PUBLIC "-//W3C//DTD SVG 1.1//EN" "http://www.w3.org/Graphics/SVG/1.1/DTD/svg11.dtd">
<svg viewBox="0 0 1080 1080" version="1.1" xmlns="http://www.w3.org/2000/svg">
	<defs>
		<filter id="skein" color-interpolation-filters="sRGB" x="-0.25" y="-0.25" width="1.5" height="1.5">
			<feBlend mode="screen" result="QA"/>
			<feGaussianBlur stdDeviation="2"/>
			<feComposite in2="QA" operator="xor"/>
			<feComposite operator="xor"/>
			<feGaussianBlur stdDeviation="3" result="QB"/>
			<feSpecularLighting surfaceScale="6" specularConstant="1.5" specularExponent="55" result="QC">
				<fePointLight x="-5000" y="-8000" z="20000"/>
			</feSpecularLighting>
			<feComposite in="QB" in2="SourceGraphic" operator="arithmetic" k2="1.5" k3="1"/>
			<feComposite in="QC" operator="atop"/>
			<feBlend mode="multiply"/>
		</filter>
	</defs>

	<g id="SkeinStar" fill-rule="evenodd" fill="#000080" filter="url(#skein)">
		<title>Star–Shaped Skein, by Adam Stanislav</title>
		<path d="m540 16.925s-1.119 0.002-1.119 0.002c-29.278 0.093-57.703 3.828-84.831 10.771-1.379 0.352-2.755 0.714-4.128 1.083-1.447 0.389-2.894 0.789-4.338 1.198-35.283 9.996-68.285 25.453-98.036 45.4-65.043 12.831-127.08 44.413-177.418 94.751s-0.523 0.524-0.523 0.524c-50.036 50.248-81.442 112.079-94.228 176.894-36.919 55.065-58.454 121.263-58.454 192.452 0 71.189 21.535 137.387 58.454 192.452 12.831 65.043 44.413 127.08 94.751 177.418 50.338 50.338 112.375 81.92 177.418 94.751l0.326 0.219c54.987 36.781 121.071 58.235 192.126 58.235 71.189 0 137.387-21.535 192.452-58.454 65.043-12.831 127.08-44.413 177.418-94.751 50.338-50.338 81.92-112.375 94.751-177.418 36.919-55.065 58.454-121.263 58.454-192.452 0-71.189-21.535-137.387-58.454-192.452-12.773-64.776-44.172-126.609-94.195-176.86l-0.556-0.558c-50.338-50.338-112.375-81.92-177.418-94.751v0c-55.065-36.919-121.263-58.454-192.452-58.454zm-43.481 984.575c-43.511 10.501-88.673 12.473-132.801 5.914 49.792 30.294 107.948 48.149 170.155 49.25-5.996-8.643-19.305-27.988-37.354-55.164zm86.962 0-0.507 0.764c-17.789 26.771-30.908 45.839-36.847 54.4 62.215-1.101 120.375-18.958 170.155-49.25-44.125 6.557-89.279 4.587-132.801-5.914zm-43.481-13.577c-12.121 4.683-24.453 8.659-36.945 11.933l0.989 1.487c17.829 26.787 30.712 45.459 35.956 53.001v0c5.339-7.679 18.596-26.894 36.945-54.488-12.482-3.271-24.817-7.248-36.945-11.933zm-226.775-105.321c-22.913 5.013-43.854 9.401-62.173 13.129 25.367 40.879 59.169 75.991 98.977 102.899 47.166 9.116 95.894 8.192 142.748-2.773-10.314-15.585-22.018-33.496-34.679-53.247-13.192-9.861-25.824-20.77-37.794-32.74-2.131-2.131-4.253-4.353-6.367-6.665-6.675-3.674-13.173-7.63-19.473-11.85-7.442-1.471-14.832-3.268-22.149-5.39-3.13 0.139-6.201 0.21-9.215 0.21-16.928 0-33.574-1.218-49.875-3.573zm453.55 0c-15.943 2.304-32.215 3.519-48.756 3.571l-1.119 0.002c-3.014 0-6.085-0.071-9.215-0.21-7.318 2.122-14.71 3.919-22.149 5.39-6.303 4.222-12.799 8.177-19.473 11.85-2.114 2.312-4.236 4.534-6.367 6.665-11.97 11.97-24.602 22.879-37.794 32.74l-0.006 0.009c-12.623 19.693-24.297 37.557-34.592 53.115l-0.081 0.123c46.842 10.969 95.572 11.894 142.748 2.773 39.599-26.771 73.261-61.663 98.588-102.274l0.389-0.625c-18.313-3.727-39.254-8.115-62.173-13.129zm68.809 14.474c-23.342 38.192-53.881 71.52-89.722 98.086 56.629-13.787 110.377-42.284 155.143-85.493-10.352-1.872-33.442-6.14-65.421-12.593zm-591.168 0-0.809 0.163c-31.552 6.361-54.343 10.574-64.612 12.43 44.772 43.215 98.524 71.712 155.143 85.493-35.837-26.565-66.373-59.887-89.722-98.086zm227.584 55.399 0.343 0.531c9.752 15.088 18.825 28.921 26.992 41.246 10.767-2.746 21.425-6.028 31.929-9.843-20.526-8.585-40.386-19.23-59.264-31.934zm136 0c-18.883 12.707-38.744 23.351-59.264 31.934 10.51 3.817 21.171 7.099 31.929 9.843 8.262-12.467 17.449-26.477 27.335-41.777zm-156.727-32.391c3.925 6.193 7.777 12.237 11.54 18.112 24.137 17.915 50.119 32.219 77.187 42.902 27.08-10.692 53.056-24.993 77.187-42.902 3.769-5.884 7.622-11.93 11.54-18.112-5.843 2.105-11.782 4.008-17.808 5.701-1.045 0.294-2.092 0.581-3.143 0.862-1.307 0.349-2.618 0.689-3.936 1.019l-0.748 0.187-0.256 0.063c-3.853 0.95-7.74 1.815-11.658 2.592-0.267 0.053-0.534 0.105-0.802 0.157l-0.802 0.156c-0.647 0.124-1.295 0.245-1.945 0.365l-0.467 0.085-0.637 0.115c-1.086 0.195-2.174 0.384-3.264 0.565-0.585 0.097-1.171 0.193-1.757 0.286-2.296 0.367-4.603 0.703-6.918 1.008l-0.415 0.055c-0.273 0.035-0.546 0.07-0.819 0.106l-0.82 0.103c-0.273 0.034-0.547 0.067-0.82 0.1l-0.821 0.098-0.822 0.095-0.823 0.093-0.823 0.091c-9.064 0.979-18.263 1.496-27.576 1.525l-0.847 0.001c-31.135 0-61.008-5.442-88.727-15.428zm121.887-30.933c-12.655 19.048-22.191 32.949-27.026 39.933 31.096-0.733 60.827-7.029 88.241-17.939 3.09-4.902 6.219-9.89 9.379-14.95-23.674 0.841-47.443-1.507-70.594-7.044zm-66.32 0c-23.16 5.537-46.929 7.884-70.594 7.044 3.162 5.064 6.289 10.049 9.379 14.95 27.403 10.905 57.139 17.205 88.241 17.939-4.834-6.984-14.373-20.888-27.026-39.933zm33.16-10.295c-8.745 3.368-17.636 6.25-26.628 8.645 12.849 19.307 22.311 33.054 26.628 39.276v0c4.317-6.221 13.779-19.969 26.628-39.276-8.993-2.395-17.883-5.277-26.628-8.645zm108.235 33.293c-3.163 1.437-6.358 2.814-9.589 4.13l-1.676 2.655c-1.546 2.447-3.082 4.873-4.607 7.274l-0.054 0.085c5.416-4.516 10.728-9.231 15.926-14.144zm-216.47 0c5.191 4.906 10.498 9.618 15.926 14.144l-1.941-3.06c-0.845-1.335-1.69-2.67-2.535-4.005l-1.861-2.949c-3.228-1.315-6.424-2.692-9.589-4.13zm233.506-17.601c-4.585 0.541-9.183 0.961-13.791 1.259l-1.749 2.806c-0.874 1.399-1.749 2.799-2.623 4.199l-2.509 4.004c5.955-2.676 11.788-5.573 17.488-8.681 1.064-1.172 2.125-2.368 3.184-3.587zm-250.542 0c1.058 1.218 2.119 2.414 3.184 3.587 5.703 3.109 11.537 6.007 17.488 8.681l-2.509-4.004c-0.874-1.4-1.749-2.8-2.623-4.199l-1.749-2.806c-4.608-0.299-9.209-0.719-13.791-1.259zm-226.021-55.505c-6.537 32.487-10.749 55.448-12.404 64.653v0l1.908-0.344c10.235-1.852 32.315-5.937 62.745-12.06-6.514-11.14-12.423-22.674-17.686-34.563-11.883-5.259-23.414-11.167-34.563-17.686zm702.255 0.192c-0.301 0.175-0.602 0.35-0.904 0.526l-0.743 0.429c-5.032 2.898-10.142 5.674-15.329 8.322l-0.48 0.245-0.912 0.462c-5.216 2.633-10.507 5.139-15.866 7.51-5.259 11.883-11.167 23.414-17.686 34.563 32.487 6.537 55.448 10.749 64.653 12.404v0c-1.655-9.205-5.867-32.166-12.404-64.653zm-806.125-93.373c13.787 56.629 42.284 110.377 85.493 155.143 1.872-10.352 6.14-33.442 12.593-65.421-38.192-23.342-71.52-53.881-98.086-89.722zm910.324 0c-20.452 27.59-44.909 52.039-72.513 72.483l-0.352 0.261-0.838 0.617c-0.28 0.205-0.56 0.41-0.84 0.615l-0.841 0.612-0.74 0.535c-0.467 0.336-0.934 0.671-1.397 1.001-2.356 1.681-4.735 3.334-7.142 4.962-1 0.677-2.005 1.349-3.006 2.011-1.131 0.748-2.267 1.49-3.409 2.225-1.414 0.912-2.836 1.814-4.267 2.708-0.913 0.569-1.829 1.135-2.741 1.692 6.452 31.973 10.722 55.069 12.593 65.421 43.215-44.772 71.712-98.524 85.493-155.143zm-507.392 114.902-1.151 0.388c-16.025 5.397-31.558 10.047-46.456 13.823-0.756 0.192-1.51 0.382-2.263 0.569l-0.759 0.188-0.914 0.225-0.273 0.066c-0.563 0.138-1.125 0.274-1.687 0.409-1.13 0.272-2.256 0.539-3.377 0.8l-0.114 0.026-0.903 0.209c-0.46 0.106-0.919 0.212-1.378 0.316l-0.421 0.095-0.898 0.202-0.895 0.2-0.894 0.198-0.125 0.027c2.317 3.751 4.618 7.466 6.898 11.131l0.011 0.019c23.75 1.24 47.64-0.812 70.924-6.154-4.649-7.029-9.662-14.671-14.977-22.855zm104.112-0.118c-5.312 8.179-10.326 15.822-14.977 22.855 23.289 5.343 47.183 7.395 70.924 6.154 2.287-3.678 4.591-7.396 6.909-11.15-19.785-4.341-40.858-10.401-62.856-17.859zm256.174-0.201 0.011-0.023-0.315 0.129c-14.85 6.075-30.215 11.148-46.007 15.132l-0.449 0.113-0.119 0.03c-5.81 1.456-11.678 2.764-17.596 3.921 17.807 3.828 34.215 7.239 48.869 10.213 5.666-9.546 10.877-19.392 15.606-29.515zm-616.123-0.023c4.732 10.13 9.95 19.989 15.617 29.538 14.657-2.974 31.06-6.384 48.869-10.213-22.337-4.367-43.908-10.884-64.486-19.325zm186.727 19.477c-1.958 0.397-3.903 0.776-5.834 1.138l-0.635 0.118-0.865 0.159s-0.271 0.05-0.271 0.05c-0.485 0.088-0.969 0.175-1.453 0.262-1.598 0.284-3.187 0.556-4.767 0.815 1.286 1.668 2.575 3.304 3.868 4.907 5.207 0.754 10.432 1.347 15.665 1.781-1.894-3.054-3.799-6.134-5.708-9.23zm242.68 0c-1.91 3.098-3.811 6.171-5.697 9.212l-0.011 0.018c5.237-0.433 10.463-1.027 15.665-1.781 1.295-1.606 2.586-3.244 3.868-4.907-4.527-0.743-9.136-1.591-13.825-2.542zm-263.636 3.634c-0.958 0.135-1.913 0.266-2.863 0.392 0.698 0.482 1.397 0.96 2.104 1.439 0.838 0.162 1.677 0.319 2.506 0.47-0.583-0.76-1.165-1.527-1.747-2.301zm284.592 0c-0.582 0.773-1.164 1.541-1.747 2.301 0.834-0.152 1.667-0.308 2.506-0.47 0.706-0.478 1.41-0.96 2.104-1.439-0.707-0.094-1.415-0.19-2.133-0.29zm-99.318-25.964c-11.047 6.807-22.491 12.718-34.241 17.739 7.122 2.524 14.334 4.723 21.607 6.595 4.74-7.156 9.88-14.978 15.345-23.385l-1.434-0.5zm-85.956 0-1.277 0.449-1.434 0.5c5.464 8.406 10.606 16.231 15.345 23.385 7.276-1.872 14.485-4.07 21.607-6.595-11.742-5.017-23.189-10.93-34.241-17.739zm-156.739 19.022c-1.542 0.347-3.083 0.694-4.625 1.041l-3.536 0.791 0.475 0.043c6.875 0.612 13.806 1.02 20.787 1.216-3.252-1.219-6.485-2.505-9.7-3.859zm396.033-0.768c-3.212 1.353-6.446 2.639-9.7 3.859 7.139-0.2 14.223-0.622 21.262-1.259-2.92-0.653-5.867-1.314-8.831-1.983zm-369.082-5.401-3.22 0.747c-1.608 0.372-3.216 0.743-4.824 1.114l-4.605 1.058c6.102 2.318 12.276 4.395 18.504 6.227l0.086-0.004c1.556-0.076 3.126-0.17 4.702-0.28-3.625-2.86-7.173-5.814-10.643-8.862zm345.532 0c-3.47 3.047-7.021 6.003-10.643 8.862 1.61 0.112 3.206 0.207 4.788 0.284 6.231-1.834 12.406-3.91 18.504-6.227l-4.605-1.058c-1.608-0.371-3.216-0.742-4.824-1.114zm-327.31-4.277c-3.542 0.84-7.058 1.669-10.563 2.49 4.009 3.397 8.125 6.673 12.336 9.818 2.051-0.22 4.123-0.465 6.205-0.735-2.676-3.726-5.335-7.585-7.978-11.573zm309.088 0c-2.642 3.986-5.301 7.846-7.978 11.573 2.089 0.271 4.158 0.516 6.205 0.735 4.215-3.149 8.329-6.424 12.336-9.818-2.929-0.686-5.878-1.381-8.851-2.084zm-287.491-5.184c-5.052 1.228-10.063 2.435-15.041 3.624 2.818 4.193 5.657 8.239 8.516 12.13 3.837-0.587 7.737-1.254 11.696-1.998l0.286-0.054 0.859-0.163 0.533-0.103c0.398-0.076 0.796-0.154 1.194-0.231l0.031-0.007c-2.675-4.354-5.368-8.755-8.074-13.198zm265.894 0c-2.705 4.441-5.395 8.837-8.074 13.198 4.957 0.972 9.826 1.826 14.599 2.556 2.858-3.89 5.697-7.936 8.516-12.13-4.971-1.187-9.987-2.395-15.041-3.624zm198.552-114.94c-12.538 26.661-29.814 51.633-51.83 73.648-22.015 22.016-46.987 39.292-73.648 51.83l2.374 0.532c6.328 1.415 12.531 2.787 18.593 4.115 29.735-4.399 58.221-12.657 84.916-24.242 11.517-26.548 19.743-54.845 24.162-84.375l0.08-0.541c-1.495-6.826-3.046-13.825-4.647-20.967zm-662.998 0-0.666 2.972c-1.357 6.075-2.676 12.034-3.952 17.861l-0.029 0.134c4.399 29.735 12.657 58.221 24.242 84.916l0.649 0.28c26.516 11.44 54.778 19.599 84.267 23.962 6.826-1.495 13.825-3.046 20.967-4.647-26.661-12.538-51.633-29.814-73.648-51.83-22.016-22.015-39.292-46.987-51.83-73.648zm267.864 97.404c-21.386 5.637-42.42 10.96-62.837 15.958l0.14 0.229c2.709 4.443 5.404 8.841 8.08 13.191 2.198-0.47 4.413-0.961 6.648-1.475l0.742-0.171 0.892-0.207c0.451-0.106 0.902-0.212 1.357-0.32 0.922-0.219 1.847-0.441 2.78-0.668l0.35-0.085 0.669-0.164c0.86-0.211 1.723-0.426 2.591-0.644l0.36-0.09 0.731-0.186c1.887-0.478 3.783-0.972 5.687-1.478s0.898-0.239 0.898-0.239l0.921-0.248 0.923-0.25 0.925-0.252 0.926-0.254 0.928-0.256 0.929-0.258c0.311-0.087 0.621-0.174 0.931-0.261l0.909-0.256c1.057-0.298 2.117-0.601 3.18-0.908l0.587-0.17 0.821-0.238c2.083-0.607 4.176-1.228 6.275-1.864 0.522-0.158 1.045-0.317 1.57-0.477l0.783-0.24c6.087-1.867 12.259-3.858 18.514-5.967-2.271-3.512-4.591-7.115-6.96-10.811-0.417-0.312-0.834-0.626-1.25-0.941zm127.27 0c-0.421 0.319-0.843 0.636-1.25 0.941-2.366 3.691-4.687 7.296-6.96 10.811 22.018 7.422 43.087 13.412 62.827 17.626 2.721-4.423 5.46-8.894 8.22-13.42-20.408-4.996-41.447-10.32-62.837-15.958zm-63.635-2.179c-11.937 4.84-23.704 9.375-35.244 13.559 11.378 6.697 23.165 12.438 35.244 17.226 12.08-4.788 23.866-10.529 35.244-17.226-11.545-4.186-23.309-8.72-35.244-13.559zm223.439-30.911c-12.461 20.291-27.608 38.758-44.936 54.898 5.281 1.221 10.495 2.416 15.624 3.581l1.579 0.359c27.088-11.666 52.569-28.238 75.08-49.712-8.356-1.52-24.933-4.607-47.347-9.126zm-446.878 0c-22.418 4.52-38.99 7.606-47.347 9.126 22.506 21.471 47.981 38.041 75.08 49.712 5.651-1.282 11.391-2.596 17.203-3.94-17.335-16.145-32.482-34.613-44.936-54.898zm413.484-6.918c-10.279 20.823-20.895 40.01-31.818 57.074l1.912 0.452c3.648 0.861 7.268 1.71 10.858 2.547 17.671-15.917 33.112-34.26 45.798-54.502-8.257-1.684-17.205-3.542-26.75-5.571zm-380.09 0c-9.539 2.028-18.489 3.887-26.75 5.571 12.689 20.246 28.134 38.592 45.798 54.502 3.588-0.837 7.205-1.685 10.858-2.547l1.912-0.452c-10.921-17.06-21.536-36.246-31.818-57.074zm361.152-4.085c-0.516 0.074-1.033 0.147-1.55 0.219-11.136 19.107-22.245 37.745-33.149 55.716 5.143 1.247 10.243 2.472 15.302 3.677 10.98-16.942 21.644-36.076 31.963-56.889-4.089-0.878-8.278-1.785-12.566-2.723zm-342.214 0c-4.282 0.937-8.473 1.845-12.566 2.723 10.321 20.818 20.984 39.951 31.963 56.889 5.051-1.203 10.15-2.428 15.302-3.677-10.899-17.963-22.011-36.604-33.149-55.716-0.523-0.073-1.046-0.146-1.55-0.219zm278.834 0.744c-5.523 7.321-11.143 13.887-16.849 19.593-6.718 6.719-13.711 12.995-20.958 18.841 20.426 5.354 40.51 10.418 60.015 15.182 10.421-17.155 21.045-34.942 31.703-53.172-9.258 0.99-18.641 1.497-28.142 1.497-8.07 0-16.687-0.67-25.769-1.941zm-215.454 0c-9.082 1.271-17.699 1.941-25.769 1.941-9.501 0-18.884-0.507-28.142-1.497 10.658 18.228 21.279 36.011 31.703 53.172 19.23-4.696 39.036-9.688 59.183-14.964l0.832-0.218c-7.247-5.846-14.24-12.122-20.958-18.841-5.706-5.706-11.326-12.272-16.849-19.593zm85.857 32.049c-11.36 3.156-22.674 6.229-33.904 9.218 4.457 3.241 8.996 6.321 13.605 9.236 11.055-3.94 22.324-8.214 33.762-12.78-4.308-1.786-8.636-3.609-12.981-5.468zm43.74 0-1.784 0.762c-3.905 1.666-7.795 3.302-11.679 4.912 11.439 4.566 22.71 8.84 33.762 12.78 4.61-2.916 9.148-5.994 13.605-9.236-11.227-2.988-22.543-6.062-33.904-9.218zm317.877-48.544c-4.367 22.337-10.884 43.908-19.325 64.486 10.13-4.732 19.989-9.95 29.538-15.617-2.917-14.376-6.254-30.432-9.99-47.829zm-679.317 0.898-0.177-0.898-0.214 0.997c-3.741 17.42-7.08 33.487-9.999 47.872 9.556 5.672 19.413 10.888 29.538 15.617-8.331-20.308-14.785-41.578-19.148-63.588zm260.546 21.682c6.477 10.391 12.767 20.35 18.798 29.794 9.627-2.554 19.322-5.171 29.066-7.852-11.885-5.196-23.897-10.65-35.983-16.316-3.467-1.625-6.94-3.268-10.429-4.932zm158.048 0c-3.948 1.889-7.919 3.769-11.881 5.626-12.086 5.666-24.098 11.12-35.983 16.316 9.735 2.679 19.43 5.296 29.066 7.852 6.026-9.438 12.317-19.396 18.798-29.794zm-79.024 19.799c-4.024 1.151-8.045 2.292-12.083 3.428 4.048 1.706 8.08 3.379 12.083 5.015 4.01-1.639 8.04-3.311 12.083-5.015-3.413-0.961-6.829-1.929-10.254-2.906zm-455.857-238.737c-10.969 46.842-11.894 95.572-2.773 142.748 26.905 39.797 62.014 73.599 102.899 98.977 3.727-18.313 8.115-39.254 13.129-62.173-2.355-16.301-3.573-32.947-3.573-49.875 0-2.963 0.068-5.983 0.203-9.063l0.007-0.152c-2.122-7.318-3.919-14.71-5.39-22.149-4.222-6.303-8.177-12.799-11.85-19.473-2.312-2.114-4.534-4.236-6.665-6.367-11.97-11.97-22.879-24.602-32.74-37.794-19.274-12.354-36.798-23.8-52.122-33.935zm911.714 0c-15.585 10.314-33.496 22.018-53.247 34.679-9.861 13.192-20.77 25.824-32.74 37.794-2.131 2.131-4.353 4.253-6.665 6.367-1.333 2.422-2.703 4.821-4.105 7.187l-0.321 0.54-0.092 0.155c-0.951 1.595-1.919 3.178-2.903 4.751-0.528 0.844-1.061 1.685-1.593 2.516-0.933 1.452-1.879 2.895-2.836 4.324-1.471 7.442-3.268 14.832-5.39 22.149 0.139 3.13 0.21 6.201 0.21 9.215 0 16.928-1.218 33.574-3.573 49.875v0.002c5.013 22.913 9.401 43.853 13.129 62.171 7.727-4.795 15.249-9.892 22.543-15.272 0.999-0.736 1.994-1.478 2.981-2.223 0.765-0.577 1.528-1.158 2.288-1.741 0.972-0.746 1.939-1.497 2.906-2.255l0.198-0.155 0.564-0.445c27.55-21.746 51.658-47.667 71.369-76.812l0.05-0.074c9.116-47.166 8.192-95.894-2.773-142.748zm-360.179 210.871-0.355 0.174c-1.878 0.921-3.754 1.837-5.629 2.748-5.681 9.181-11.24 18.057-16.624 26.57 4.557-3.958 8.993-8.091 13.314-12.411 4.8-4.801 9.535-10.221 14.205-16.204-1.626-0.275-3.265-0.568-4.911-0.877zm-191.356 0c-1.651 0.31-3.288 0.602-4.911 0.877 4.67 5.983 9.405 11.403 14.205 16.204 4.321 4.32 8.757 8.453 13.314 12.411-5.385-8.514-10.944-17.39-16.624-26.57l-0.005-0.002c-1.841-0.895-3.682-1.794-5.549-2.709zm156.068 9.832c-16.213 5.061-32.529 9.964-48.854 14.708l1.14 0.322c2.919 0.823 5.835 1.64 8.749 2.452 2.252-0.97 4.51-1.95 6.77-2.938s0.337-0.148 0.337-0.148c10.529-4.606 21.161-9.416 31.858-14.396zm-120.78 0c13.107 6.102 26.118 11.948 38.965 17.482 3.292-0.917 6.588-1.842 9.889-2.774-16.309-4.739-32.633-9.644-48.854-14.708zm59.706-39.478-1.579 0.636-0.718 0.287c-2.748 1.101-5.483 2.179-8.205 3.235l-0.493 0.192-0.442 0.171c-5.632 2.176-11.206 4.254-16.709 6.224l-1.35 0.482-0.912 0.323c-0.747 0.265-1.493 0.527-2.239 0.788-1.876 0.657-3.744 1.3-5.606 1.931-0.727 0.246-1.452 0.49-2.171 0.731l-1.129 0.377-1.482 0.49c-0.543 0.179-1.086 0.356-1.632 0.534-2.923 0.952-5.822 1.87-8.696 2.753l-1.457 0.445c-0.539 0.163-1.077 0.325-1.614 0.486-8.015 2.404-15.832 4.522-23.419 6.326l2.087 0.674c25.861 8.334 52.112 16.265 78.251 23.762l0.199 0.057c26.115-7.488 52.331-15.406 78.156-23.724l2.381-0.769c-24.766-5.89-52.009-15.136-80.537-26.688zm-263.865-1.557c-4.567 22.738-7.597 39.15-8.944 46.602v0l1.609-0.292c8.055-1.465 23.761-4.388 44.993-8.652-4.639-8.006-8.866-16.28-12.651-24.794l-0.065-0.148c-8.565-3.802-16.89-8.051-24.942-12.716zm529.098 0c-8.052 4.666-16.376 8.915-24.942 12.716-3.802 8.565-8.051 16.89-12.716 24.942 22.738 4.567 39.15 7.597 46.602 8.944v0c-1.347-7.452-4.377-23.864-8.944-46.602zm-589.782-48.388c-1.343 5.807-2.654 11.534-3.936 17.185l-0.004 0.018c11.666 27.088 28.238 52.569 49.712 75.08 1.52-8.356 4.607-24.933 9.126-47.347-20.291-12.461-38.758-27.608-54.898-44.936zm650.466 0c-4.506 4.838-9.193 9.506-14.046 13.987-0.374 0.345-0.748 0.689-1.123 1.031l-0.433 0.395-0.582 0.528-0.343 0.308c-6.758 6.086-13.836 11.826-21.207 17.193-0.674 0.491-1.351 0.979-2.026 1.46l-0.341 0.244-0.643 0.456c-0.215 0.151-0.43 0.303-0.644 0.454l-0.646 0.452-0.647 0.45-0.649 0.448c-0.217 0.149-0.433 0.298-0.65 0.447l-0.267 0.182c-0.345 0.236-0.69 0.47-1.039 0.707-1.464 0.989-2.938 1.964-4.428 2.927l-0.178 0.115-0.31 0.2c-0.813 0.523-1.629 1.041-2.453 1.559l-0.57 0.357-0.67 0.418c-0.224 0.138-0.448 0.277-0.672 0.415l-0.331 0.203c4.52 22.418 7.606 38.99 9.126 47.347 21.471-22.506 38.041-47.981 49.712-75.08-1.271-5.601-2.573-11.29-3.905-17.054zm-556.154 64.774c3.251 6.821 6.796 13.475 10.615 19.942 8.412-1.708 17.578-3.605 27.387-5.686l-0.66-1.367-0.586-1.221c-12.625-2.998-24.897-6.91-36.756-11.668zm461.842 0c-11.851 4.755-24.126 8.668-36.756 11.668l-0.586 1.221-0.66 1.367c9.808 2.08 18.977 3.978 27.387 5.686 3.82-6.469 7.364-13.121 10.615-19.942zm-352.064 4.713c-10.509 2.474-20.716 4.82-30.543 7.032 6.021 0.424 12.081 0.639 18.19 0.639l0.552-0.001c6.629-0.026 13.627-0.51 20.951-1.413-0.955-1.344-1.907-2.71-2.852-4.093-2.104-0.719-4.203-1.44-6.298-2.164zm242.286 0c-2.088 0.722-4.181 1.441-6.298 2.164-0.948 1.387-1.899 2.752-2.852 4.093 7.532 0.929 14.713 1.414 21.503 1.414 2.441 0 4.874-0.035 7.291-0.103l0.124-0.003 0.821-0.025c0.274-0.009 0.547-0.018 0.82-0.027l0.552-0.02c0.738-0.028 1.475-0.058 2.201-0.091 2.13-0.097 4.253-0.221 6.381-0.37-9.828-2.212-20.036-4.558-30.543-7.032zm83.488-31.47-0.665 0.275c-4.249 1.756-8.539 3.5-12.867 5.233-5.801 10.264-11.628 20.437-17.456 30.492 1.355-0.214 2.707-0.439 4.044-0.672l0.253-0.044 0.616-0.109c3.782-0.674 7.534-1.431 11.238-2.265 5.031-10.603 9.978-21.593 14.837-32.91zm-409.262 0c4.86 11.318 9.807 22.31 14.837 32.91 5.321 1.199 10.707 2.231 16.151 3.09-5.827-10.052-11.655-20.226-17.456-30.492-4.323-1.731-8.61-3.473-12.855-5.228zm386.317 9.233c-12.078 4.73-24.428 9.367-36.981 13.907-4.115 1.488-8.252 2.966-12.379 4.423 11.927 2.768 23.417 5.361 34.359 7.775 5.002-8.613 10.007-17.319 15.001-26.105zm-363.372 0c4.989 8.778 9.994 17.484 15.001 26.105 10.935-2.412 22.424-5.006 34.359-7.775-4.127-1.457-8.264-2.935-12.379-4.423-12.553-4.54-24.903-9.177-36.981-13.907zm165.128-4.481c-26.526 7.367-52.714 14.133-77.663 20.249 1.795 2.942 3.581 5.858 5.361 8.751 2.155-0.464 4.332-0.956 6.525-1.475l0.604-0.142 0.212-0.051c16.283-3.889 33.659-9.261 51.773-15.798l1.055-0.381 0.51-0.186c0.96-0.349 1.923-0.702 2.889-1.058l0.705-0.26c1.318-0.488 2.64-0.982 3.966-1.481l1.026-0.387c0.509-0.194 1.018-0.387 1.527-0.581l1.429-0.546c2.731-1.047 5.475-2.118 8.231-3.211-2.322-0.968-4.651-1.95-6.989-2.947zm33.116 0c-2.729 1.168-5.448 2.317-8.15 3.443 28.681 11.373 55.919 20.276 80.452 25.557 1.778-2.89 3.565-5.808 5.361-8.751-24.949-6.115-51.137-12.882-77.663-20.249zm84.138 21.829-0.927 1.52c-1.005 1.648-2.008 3.287-3.009 4.921l1.427-0.474c0.832-0.278 1.665-0.556 2.497-0.834l3.65-1.512c0.785-0.392 1.57-0.784 2.355-1.176l1.344-0.674c-2.43-0.583-4.875-1.173-7.337-1.771zm-201.392 0c-2.463 0.598-4.913 1.189-7.337 1.771l1.344 0.674c0.785 0.392 1.57 0.784 2.356 1.176l3.649 1.512c0.832 0.278 1.665 0.556 2.497 0.834l1.427 0.474c-1.306-2.131-2.617-4.277-3.936-6.441zm-146.826-45.421c3.31 12.78 7.584 25.175 12.741 37.101 11.927 5.157 24.32 9.431 37.101 12.741-5.203-11.123-10.316-22.648-15.333-34.509l-0.116-0.049c-11.822-5.003-23.31-10.1-34.393-15.284zm495.044 0-0.123 0.057c-11.087 5.185-22.572 10.279-34.386 15.276-5.018 11.863-10.131 23.39-15.333 34.509 12.78-3.31 25.175-7.584 37.101-12.741 5.157-11.927 9.431-24.32 12.741-37.101zm-94.57-32.837c-2.711 1.115-5.443 2.225-8.197 3.328l-0.492 0.87c-13.389 23.662-26.952 46.668-40.106 68.365 3.35 0.81 6.674 1.609 9.978 2.397 13.615-21.083 26.58-46.641 38.817-74.96zm-305.904 0c12.238 28.322 25.203 53.878 38.817 74.96 3.3-0.787 6.627-1.586 9.978-2.397-13.317-21.966-27.05-45.269-40.598-69.235-2.691-1.078-5.364-2.163-8.014-3.253zm390.113-41.579c-21.677 13.347-47.479 26.074-75.82 38.077-12.003 28.341-24.729 54.142-38.077 75.82l2.281-1.168 1.769-0.908c5.17-2.657 10.339-5.339 15.512-8.048l1.571-0.823 1.446-0.759c1.338-0.703 2.675-1.407 4.023-2.119l1.591-0.84 2.352-1.245 1.815-0.964c3.303-1.754 6.602-3.516 9.88-5.276 3.064-1.646 6.126-3.297 9.185-4.956l0.234-0.127 1.593-0.864c7.032-3.819 14.041-7.666 21.016-11.532 13.574-24.49 26.902-49.376 39.629-74.268zm-474.322 0c12.724 24.886 26.051 49.772 39.629 74.268 24.49 13.574 49.376 26.902 74.268 39.629-13.347-21.677-26.074-47.479-38.077-75.82-28.341-12.003-54.142-24.729-75.82-38.077zm372.504 48.623c-3.724 1.449-7.48 2.887-11.266 4.312-13.875 8.083-28.815 13.659-44.165 16.727-13.016 8.681-27.523 15.304-43.056 19.401l-0.454 0.206c-2.788 1.261-5.569 2.506-8.347 3.735l-1.527 0.674-0.688 0.303c24.558 6.732 48.75 12.942 71.845 18.587 12.341-20.325 25.054-41.82 37.658-63.945zm-270.686 0c12.598 22.115 25.307 43.603 37.654 63.937l0.004 0.008c23.099-5.646 47.287-11.855 71.845-18.587-3.231-1.421-6.472-2.865-9.724-4.334l-0.711-0.32-0.581-0.264c-0.593-0.157-1.185-0.317-1.772-0.48-14.863-4.126-28.765-10.573-41.284-18.921-15.343-3.066-30.284-8.641-44.165-16.727-3.784-1.425-7.539-2.861-11.266-4.312zm327.039 36.122-0.11 0.061c-14.716 8.087-29.553 16.07-44.426 23.87l-0.41 0.215c13.583-4.954 26.917-10.02 39.914-15.191 1.679-2.977 3.356-5.961 5.032-8.955zm-383.282 0.061-0.11-0.061 0.834 1.489c1.397 2.493 2.796 4.981 4.198 7.466 13.001 5.173 26.334 10.239 39.914 15.191l-0.829-0.435c-14.735-7.732-29.431-15.64-44.007-23.65zm449.119-15.151-1.367 0.66-1.221 0.586c-2.998 12.625-6.91 24.897-11.668 36.756 6.786-3.235 13.408-6.76 19.859-10.566l0.083-0.049c-1.708-8.412-3.605-17.578-5.686-27.387zm-515.066 0c-2.08 9.808-3.978 18.977-5.686 27.387 6.469 3.82 13.121 7.364 19.942 10.615-4.755-11.851-8.668-24.126-11.668-36.756l-1.221-0.586zm256.6 24.163-0.707-0.007-1.81 0.515c-0.693 0.197-1.386 0.394-2.079 0.59l-1.234 0.349c2.202 0.922 4.398 1.831 6.59 2.728l0.173 0.071c2.223-0.91 4.454-1.833 6.691-2.769l0.072-0.03-1.234-0.349c-0.693-0.196-1.386-0.393-2.079-0.59l-1.81-0.515-0.707 0.007-0.933 0.003zm-319.558-58.855c-1.015 4.291-2.014 8.545-2.999 12.77 15.908 17.66 34.239 33.094 54.471 45.779l0.031 0.019c1.684-8.257 3.542-17.205 5.571-26.75-20.792-10.263-39.952-20.863-56.998-31.769zm640.982 0c-17.06 10.921-36.246 21.536-57.074 31.818 2.028 9.539 3.887 18.489 5.571 26.75l0.031-0.019c18.439-11.56 35.3-25.406 50.184-41.135l0.113-0.119c1.411-1.493 2.804-3.003 4.174-4.525l-0.035-0.149c-0.901-3.865-1.816-7.763-2.745-11.696zm-107.319 37.857c-3.648 2.046-7.306 4.087-10.968 6.12-2.031 3.659-4.068 7.309-6.12 10.968 4.069-1.656 8.103-3.323 12.09-4.998 1.678-3.994 3.344-8.026 4.998-12.09zm-426.344 0c1.656 4.069 3.323 8.103 4.998 12.09l0.577 0.243c3.804 1.595 7.641 3.179 11.513 4.755-2.046-3.648-4.087-7.306-6.12-10.968-3.236-1.796-6.464-3.597-9.706-5.412zm213.172-9.787c-4.018 1.529-8.091 2.873-12.205 4.031 5.453 8.173 9.688 14.362 12.205 18.009v0c2.517-3.647 6.752-9.836 12.205-18.009-4.115-1.159-8.188-2.502-12.205-4.031zm-339.682 0.319c0.2 7.139 0.622 14.223 1.259 21.262 0.678-3.032 1.365-6.092 2.06-9.17l0.54-2.392c-1.353-3.212-2.639-6.446-3.859-9.7zm679.364 0c-1.219 3.252-2.505 6.485-3.859 9.7l0.649 2.874c0.66 2.925 1.311 5.825 1.951 8.688 0.636-7.023 1.058-14.113 1.259-21.262zm-358.408 5.383c-9.519 2.206-19.219 3.436-28.944 3.689 13.092 4.119 26.283 8.101 39.476 11.943-2.699-3.951-6.28-9.24-10.532-15.632zm37.452 0c-4.253 6.394-7.834 11.683-10.532 15.632 13.157-3.831 26.322-7.805 39.39-11.916l0.086-0.027c-9.721-0.253-19.421-1.482-28.944-3.689zm233.794-18.356-1.201 0.696c-2.513 1.455-5.034 2.911-7.554 4.361s-0.51 0.294-0.51 0.294c-7.026 4.042-14.106 8.08-21.227 12.105-1.823 4.553-3.659 9.065-5.508 13.532 11.318-4.86 22.31-9.807 32.91-14.837 1.199-5.321 2.231-10.707 3.09-16.151zm-505.04 0c0.86 5.444 1.892 10.831 3.09 16.151l0.129 0.062c10.462 4.961 21.3 9.841 32.459 14.637l0.322 0.138c-1.85-4.469-3.686-8.981-5.508-13.532-9.942-5.619-19.798-11.262-29.543-16.906zm484.675-26.893c-7.886 15.043-15.957 30.047-24.146 44.946 2.999-1.678 5.99-3.359 8.955-5.032 5.173-13.001 10.239-26.334 15.191-39.914zm-464.31 0c4.954 13.583 10.02 26.917 15.191 39.914 2.977 1.679 5.961 3.356 8.955 5.032-8.181-14.884-16.256-29.895-24.146-44.946zm138.916-3.891c-8.219 1.797-15.816 3.397-22.614 4.791 9.03 13.935 20.504 26.142 33.812 36.009 1.649 0.828 3.297 1.652 4.944 2.471 1.705 0.572 3.414 1.142 5.136 1.713l0.106 0.036c16.39 2.433 33.135 1.915 49.371-1.554-3.82-5.791-8.059-12.294-12.603-19.379-5.395-4.051-10.573-8.533-15.483-13.444-2.978-2.978-5.915-6.383-8.803-10.164-4.715 0.632-9.199 0.963-13.411 0.963-6.945 0-13.775-0.492-20.455-1.442zm186.478 0c-6.38 0.908-12.899 1.397-19.523 1.439l-0.932 0.003c-4.084 0-8.423-0.312-12.99-0.906l-0.421-0.057c-2.888 3.781-5.825 7.186-8.803 10.164-4.91 4.911-10.088 9.393-15.483 13.444-4.541 7.082-8.782 13.587-12.603 19.379 16.239 3.469 32.983 3.987 49.371 1.554 1.751-0.581 3.499-1.164 5.242-1.749 1.653-0.823 3.307-1.649 4.944-2.471 13.31-9.869 24.784-22.075 33.812-36.009-6.796-1.394-14.392-2.994-22.614-4.791zm-432.523 19.264c-0.112 1.61-0.207 3.206-0.284 4.788 1.834 6.231 3.91 12.406 6.227 18.504l1.058-4.605c0.371-1.608 0.742-3.216 1.114-4.824l0.747-3.22c-3.047-3.47-6.003-7.021-8.862-10.643zm678.568 0c-2.86 3.625-5.814 7.173-8.862 10.643l0.747 3.22c0.372 1.608 0.743 3.216 1.114 4.824l1.058 4.605c2.318-6.102 4.395-12.276 6.227-18.504-0.077-1.581-0.172-3.176-0.284-4.788zm-317.511 13.708c-4.248 2.504-8.598 4.772-13.037 6.806 2.374 0.77 4.765 1.475 7.174 2.114 1.851-2.798 3.81-5.776 5.863-8.92zm-43.546 0c2.052 3.142 4.011 6.121 5.863 8.92 2.406-0.639 4.798-1.344 7.174-2.114-4.434-2.032-8.785-4.301-13.037-6.806zm-293.494-39.423c-1.247 5.143-2.472 10.243-3.677 15.302l0.224 0.146c16.884 10.928 35.941 21.543 56.665 31.817 0.878-4.089 1.785-8.278 2.723-12.566-0.074-0.516-0.147-1.033-0.219-1.55-19.05-11.102-37.632-22.178-55.55-33.048zm630.534 0c-16.491 10.006-33.554 20.191-51.022 30.408l-1.06 0.62-2.41 1.408s-1.224 0.713-1.224 0.713c-0.073 0.523-0.146 1.046-0.219 1.55 0.937 4.282 1.845 8.473 2.723 12.566 20.818-10.321 39.951-20.984 56.889-31.963-1.203-5.051-2.428-10.15-3.677-15.302zm-559.35-4.082c-2.768 11.927-5.361 23.417-7.775 34.359 8.613 5.002 17.319 10.007 26.105 15.001-4.73-12.078-9.367-24.428-13.907-36.981-1.488-4.115-2.966-8.252-4.423-12.379zm488.166 0c-1.457 4.127-2.935 8.264-4.423 12.379-4.54 12.553-9.177 24.903-13.907 36.981 7.282-4.139 14.514-8.288 21.696-12.445l1.096-0.634 2.247-1.303 1.066-0.619c-2.412-10.935-5.006-22.424-7.775-34.359zm-244.083-6.369-0.796 0.32-0.865 0.346-0.802 0.319c-0.878 0.348-1.753 0.691-2.629 1.032l-0.012 0.005-0.857 0.332-0.855 0.33c-0.285 0.109-0.569 0.218-0.854 0.327l-0.852 0.323-0.85 0.322-0.65 0.243c-0.35 0.132-0.7 0.262-1.045 0.39-0.513 0.191-1.024 0.379-1.538 0.567s-0.15 0.055-0.15 0.055l-0.434 0.159c-2.497 0.909-4.969 1.78-7.411 2.609l-0.483 0.164-0.821 0.276c-7.659 2.562-15.044 4.711-22.065 6.367l-0.279 0.065c4.828 7.792 9.489 15.173 13.876 22.023 9.514 7.026 19.729 12.674 30.372 16.941 10.641-4.267 20.858-9.915 30.372-16.941 4.389-6.852 9.05-14.235 13.876-22.023-13.592-3.184-28.563-8.226-44.248-14.551zm-516.664-119.83 0.001 0.077c1.111 62.181 18.963 120.311 49.249 170.078-6.557-44.125-4.587-89.279 5.914-132.801-27.171-18.046-46.521-31.358-55.164-37.354zm1033.33 0c-8.643 5.996-27.988 19.305-55.164 37.354 10.501 43.511 12.473 88.673 5.914 132.801 30.294-49.792 48.149-107.948 49.25-170.155zm-639.187 142.878c-7.528 1.514-13.8 2.722-18.5 3.606 12.04 6.61 24.187 13.124 36.358 19.469-6.695-7.053-12.685-14.781-17.858-23.075zm245.046 0c-5.171 8.291-11.161 16.02-17.858 23.075 12.17-6.345 24.313-12.857 36.358-19.469-4.702-0.885-10.974-2.093-18.5-3.606zm-460.241-2.439c-0.271 2.089-0.516 4.158-0.735 6.205l0.11 0.147c3.115 4.165 6.354 8.232 9.708 12.189l0.039-0.166c0.806-3.44 1.623-6.905 2.451-10.397-3.882-2.573-7.644-5.162-11.28-7.767zm675.436 0c-3.726 2.676-7.585 5.335-11.573 7.978 0.84 3.542 1.669 7.058 2.49 10.563 3.397-4.009 6.673-8.125 9.818-12.336l-0.019-0.178c-0.212-1.967-0.448-3.952-0.705-5.948zm-39.208-76.646c-5.846 7.247-12.122 14.24-18.841 20.958-5.706 5.706-12.272 11.326-19.593 16.849 1.271 9.082 1.941 17.699 1.941 25.769 0 9.501-0.507 18.884-1.497 28.142l1.444-0.845c0.74-0.433 1.48-0.867 2.221-1.301l2.216-1.301 1.368-0.803c2.296-1.35 4.585-2.699 6.854-4.04 1.73-1.023 3.456-2.044 5.187-3.071 11.521-6.834 22.829-13.628 33.882-20.342-4.762-19.498-9.827-39.588-15.182-60.015zm-597.02 0c-5.354 20.426-10.418 40.51-15.182 60.015 17.155 10.421 34.942 21.045 53.172 31.703-0.99-9.258-1.497-18.641-1.497-28.142 0-8.07 0.67-16.687 1.941-25.769-7.321-5.523-13.887-11.143-19.593-16.849-6.719-6.718-12.995-13.711-18.841-20.958zm457.816 79.821-1.119 0.626c-0.63 0.351-1.259 0.702-1.888 1.053l-1.644 0.915c-0.378 0.388-0.764 0.779-1.153 1.167s-0.661 0.657-0.661 0.657l-0.506 0.496-0.823 1.478c-0.592 1.064-1.185 2.126-1.771 3.173 2.268-0.93 4.522-1.864 6.761-2.804 0.939-2.238 1.874-4.493 2.804-6.761zm-318.612 0c0.93 2.268 1.864 4.522 2.804 6.761 2.238 0.939 4.493 1.874 6.761 2.804l-0.626-1.119c-0.351-0.63-0.702-1.259-1.053-1.888l-0.915-1.644-0.506-0.496-0.661-0.657c-0.389-0.388-0.775-0.779-1.153-1.167l-1.644-0.915-1.888-1.053zm-78.1-45.584c-0.81 3.35-1.609 6.674-2.397 9.978l0.094 0.061c21.064 13.592 46.589 26.538 74.866 38.756-1.115-2.711-2.225-5.443-3.328-8.197-5.408-3.057-10.783-6.124-16.102-9.185-1.007-0.58-2.014-1.16-3.027-1.745l-0.149-0.086c-1.922-1.11-3.839-2.221-5.741-3.326l-0.331-0.192-0.427-0.248c-13.892-8.077-27.464-16.142-40.581-24.074zm474.812 0c-21.966 13.317-45.269 27.05-69.235 40.598-1.104 2.755-2.214 5.49-3.328 8.197 28.322-12.238 53.878-25.203 74.96-38.817-0.787-3.3-1.586-6.627-2.397-9.978zm-491.653 7.836c-0.929 7.532-1.414 14.713-1.414 21.503 0 6.109 0.215 12.169 0.639 18.19 2.212-9.828 4.558-20.036 7.032-30.543-0.722-2.088-1.441-4.181-2.164-6.298-1.387-0.948-2.752-1.899-4.093-2.852zm508.494 0c-1.344 0.955-2.71 1.907-4.093 2.852-0.719 2.104-1.44 4.203-2.164 6.298 2.474 10.509 4.82 20.716 7.032 30.543 0.424-6.021 0.639-12.081 0.639-18.19 0-6.79-0.485-13.971-1.414-21.503zm-203.409 29.933c-1.265 2.048-2.52 4.069-3.763 6.064 1.727-1.791 3.437-3.728 5.131-5.803-0.454-0.085-0.911-0.172-1.368-0.261zm-101.676 0c-0.457 0.089-0.913 0.176-1.368 0.261 1.694 2.075 3.404 4.013 5.131 5.803l-0.345-0.555c-1.129-1.811-2.267-3.647-3.418-5.509zm384.997-17.053c-4.354 2.675-8.755 5.368-13.198 8.074 1.228 5.052 2.435 10.063 3.619 15.021l0.005 0.02c4.193-2.818 8.239-5.657 12.13-8.516-0.73-4.772-1.584-9.64-2.556-14.599zm-668.318 0c-0.972 4.957-1.826 9.826-2.556 14.599l0.05 0.037c3.877 2.847 7.907 5.674 12.08 8.479 1.187-4.971 2.395-9.987 3.624-15.041-4.441-2.705-8.837-5.395-13.198-8.074zm190.947 1.079c-1.924 9.635-3.306 17.006-4.104 21.364v0.001l2.328-0.43c4.452-0.826 10.943-2.059 19.036-3.675-2.09-3.728-4.02-7.559-5.78-11.48-3.922-1.76-7.752-3.69-11.48-5.78zm286.424 0c-3.728 2.09-7.559 4.02-11.48 5.78-1.76 3.922-3.69 7.752-5.78 11.48 9.635 1.924 17.006 3.306 21.364 4.104h0.001c-0.799-4.358-2.181-11.728-4.105-21.364zm202.622 14.597-0.294 0.225c-0.666 0.509-1.336 1.017-2.007 1.522 0.135 0.958 0.266 1.913 0.392 2.863l0.118-0.171c0.443-0.643 0.884-1.288 1.321-1.933 0.162-0.838 0.319-1.677 0.47-2.506zm-691.668 0c0.152 0.834 0.308 1.667 0.47 2.506l0.23 0.34c0.382 0.562 0.766 1.122 1.147 1.673l0.062 0.091c0.099-0.748 0.201-1.499 0.308-2.259l0.084-0.604c-0.723-0.544-1.441-1.088-2.153-1.633zm468.8-5.228-0.415 0.154c-4.439 1.633-8.981 3.055-13.615 4.252 3.672 0.771 7.164 1.492 10.452 2.162 1.25-2.153 2.443-4.343 3.578-6.568zm-245.932 0c1.134 2.224 2.326 4.412 3.578 6.568 3.287-0.67 6.777-1.39 10.452-2.162-4.774-1.233-9.453-2.705-14.03-4.406zm-49.114-30.656 0.13 0.25c6.308 12.094 12.781 24.162 19.339 36.108 0.885-4.702 2.093-10.974 3.606-18.5-8.291-5.171-16.02-11.161-23.075-17.858zm344.16 0c-7.053 6.695-14.781 12.685-23.075 17.858 1.514 7.528 2.722 13.8 3.606 18.5 6.61-12.04 13.124-24.187 19.469-36.358zm-107.671 31.64c-0.26 0.386-0.521 0.77-0.783 1.151 2.665 0.27 5.245 0.431 7.732 0.475-2.288-0.53-4.606-1.073-6.949-1.626zm-128.818 0-0.837 0.197c-2.06 0.486-4.099 0.963-6.112 1.429 2.373-0.042 4.831-0.19 7.37-0.438l0.362-0.037c-0.262-0.381-0.523-0.765-0.783-1.151zm118.886-0.297 1.108-1.814 2.067 0.499 0.167 0.04c-0.422 0.605-0.846 1.201-1.27 1.788-0.716-0.115-1.437-0.237-2.163-0.366zm-112.129-1.315 2.067-0.499 1.108 1.814 0.091 0.147c-0.727 0.129-1.447 0.251-2.163 0.366-0.425-0.587-0.848-1.183-1.27-1.788zm188.294-66.627c-11.862 7.359-26.013 14.38-41.577 20.999-6.619 15.563-13.639 29.713-20.999 41.577 8.924 2.096 17.439 4.02 25.384 5.761 11.696-1.759 22.913-4.989 33.456-9.497 4.507-10.542 7.738-21.76 9.497-33.456-1.742-7.948-3.666-16.464-5.761-25.384zm-261.284 0c-2.096 8.924-4.02 17.439-5.761 25.384 1.759 11.696 4.989 22.913 9.497 33.456l0.351 0.149c10.44 4.429 21.537 7.608 33.105 9.348 7.85-1.721 16.255-3.619 25.061-5.685l0.323-0.076c-7.359-11.862-14.38-26.013-20.999-41.577-15.563-6.619-29.713-13.639-41.577-20.999zm347.887-42.226-0.137 0.31c-1.565 3.556-3.159 7.126-4.781 10.706l-0.014 0.052-0.224 0.838c-0.254 0.939-0.517 1.874-0.792 2.812l-0.001 0.001c-0.533 1.822-1.101 3.629-1.702 5.415l-0.002 0.006c-0.141 0.417-0.283 0.833-0.427 1.251l-0.245 0.701c-0.099 0.278-0.197 0.555-0.296 0.832l-0.242 0.667c-1.911 5.234-4.117 10.327-6.598 15.261-0.213 0.424-0.429 0.848-0.644 1.264-0.484 0.94-0.978 1.873-1.482 2.803l-0.419 0.765-0.424 0.763-0.428 0.759-0.432 0.757-0.384 0.663c-0.456 0.782-0.918 1.559-1.39 2.336l-0.454 0.742-0.176 0.284c-0.853 1.377-1.728 2.738-2.625 4.084-3.066 15.343-8.641 30.284-16.727 44.165-1.425 3.784-2.861 7.539-4.312 11.266 22.126-12.604 43.623-25.32 63.945-37.658-5.646-23.099-11.855-47.287-18.587-71.845zm-434.49 0c-6.732 24.558-12.942 48.75-18.587 71.845l2.521 1.528c9.24 5.598 18.714 11.267 28.382 16.969l1.102 0.65 3.294 1.938 3.308 1.939 3.32 1.94 3.333 1.941 3.346 1.941 1.677 0.971 0.97 0.56c4.205 2.429 8.437 4.857 12.692 7.281-1.449-3.724-2.887-7.48-4.312-11.266-8.083-13.875-13.659-28.815-16.727-44.165-8.681-13.016-15.304-27.523-19.401-43.056-1.669-3.683-3.308-7.355-4.918-11.016zm566.374 89.792c-3.054 1.894-6.134 3.799-9.23 5.708 0.95 4.687 1.799 9.296 2.542 13.825 1.659-1.279 3.286-2.561 4.881-3.847l0.026-0.021c0.754-5.207 1.347-10.432 1.781-15.665zm-698.258 0c0.433 5.237 1.027 10.463 1.781 15.665l0.108 0.087c1.559 1.256 3.149 2.509 4.767 3.756l0.032 0.025c0.736-4.487 1.576-9.054 2.515-13.691l0.027-0.134c-3.056-1.884-6.087-3.759-9.098-5.626zm340.001 6.536c-13.636 3.781-27.104 7.271-39.981 10.445 0.454 0.742 0.907 1.481 1.359 2.217 0.916-0.202 1.838-0.414 2.771-0.636 0.767-0.182 1.54-0.37 2.317-0.565l0.121-0.03c1.185-0.298 2.381-0.61 3.587-0.935 1.297-0.35 2.605-0.716 3.925-1.097 0.44-0.127 0.881-0.255 1.32-0.385l0.244-0.072 0.771-0.23c1.107-0.331 2.22-0.672 3.339-1.024l0.551-0.173 0.71-0.225c0.896-0.286 1.797-0.578 2.703-0.877l0.533-0.176c0.265-0.089 0.53-0.177 0.795-0.265l0.506-0.17c0.666-0.224 1.334-0.452 2.002-0.682l0.487-0.168c0.422-0.146 0.845-0.293 1.268-0.441l0.553-0.194 0.286-0.102c0.504-0.178 1.009-0.358 1.517-0.54l0.494-0.177c1.474-0.531 2.958-1.077 4.45-1.636l0.605-0.227 0.538-0.204c0.979-0.37 1.961-0.746 2.945-1.127l-0.396-0.168zm17.936 0.136-0.396 0.168c13.964 5.408 27.246 9.684 39.338 12.358 0.452-0.735 0.904-1.474 1.359-2.217-12.884-3.176-26.346-6.665-39.981-10.445zm-89.461-29.755c6.05 13.698 12.418 26.113 19.078 36.555 0.84-0.201 1.682-0.403 2.529-0.607-3.778-6.25-7.613-12.691-11.46-19.273l-0.014-0.024-1.16-1.988-1.16-1.997-1.161-2.005-1.16-2.012-1.16-2.019-1.159-2.027-1.159-2.033-1.157-2.039-0.135-0.24-0.323-0.13zm160.907 0.161-0.323 0.13c-1.145 2.024-2.293 4.039-3.441 6.043l-0.169 0.296-1.16 2.019-1.16 2.012-1.161 2.005-1.16 1.997-1.16 1.988-1.16 1.981-1.158 1.971s-0.167 0.282-0.167 0.282c-3.016 5.122-6.019 10.149-8.989 15.063 0.846 0.203 1.689 0.406 2.529 0.607 6.66-10.443 13.029-22.859 19.078-36.555zm-150.776 3.813 0.238 0.415c5.935 10.336 11.895 20.394 17.71 29.986 11.038-2.705 22.523-5.645 34.189-8.805-3.331-1.492-6.676-3.026-10.035-4.601-5.048-2.367-10.129-4.823-15.224-7.354l-0.274-0.136c-5.495-1.846-10.92-3.733-16.256-5.663-3.488-1.262-6.938-2.542-10.348-3.842zm141.044 0c-3.41 1.3-6.86 2.58-10.348 3.842-5.336 1.93-10.761 3.817-16.256 5.663-4.003 1.99-7.993 3.932-11.966 5.821l-0.409 0.195-0.262 0.124c-0.962 0.457-1.912 0.905-2.861 1.35-3.359 1.575-6.704 3.109-10.035 4.601 11.666 3.159 23.15 6.099 34.189 8.805 5.892-9.718 11.933-19.917 17.948-30.401zm-385.699-41.098c-7.422 22.018-13.412 43.087-17.626 62.827 4.423 2.721 8.894 5.46 13.42 8.22 4.996-20.408 10.32-41.447 15.958-62.837-0.319-0.421-0.636-0.843-0.941-1.25-3.691-2.366-7.296-4.687-10.811-6.96zm630.354 0-2.086 1.347c-2.848 1.839-5.755 3.709-8.725 5.613-0.312 0.417-0.626 0.834-0.941 1.25 5.637 21.386 10.96 42.42 15.958 62.837 4.518-2.755 8.99-5.494 13.42-8.22-4.216-19.743-10.206-40.814-17.626-62.827zm47.635 51.683c-1.4 0.874-2.8 1.749-4.199 2.623l-2.806 1.749c-0.299 4.608-0.719 9.209-1.259 13.791 1.218-1.058 2.414-2.119 3.587-3.184 3.109-5.703 6.007-11.537 8.681-17.488zm-729.628-2.509c2.676 5.955 5.573 11.788 8.681 17.488l0.239 0.217c1.087 0.983 2.194 1.964 3.318 2.942l0.03 0.025c-0.541-4.585-0.961-9.183-1.259-13.791-2.418-1.506-4.817-3.004-7.21-4.501zm506.543 4.337c-1.233 4.774-2.705 9.453-4.406 14.03 2.224-1.134 4.412-2.326 6.568-3.578-0.67-3.287-1.39-6.777-2.162-10.452zm-279.454 0c-0.771 3.672-1.492 7.164-2.162 10.452 2.153 1.25 4.343 2.443 6.568 3.578-1.698-4.572-3.171-9.252-4.406-14.03zm-46.598-86.452c-3.469 16.239-3.987 32.983-1.554 49.371 0.581 1.751 1.164 3.499 1.749 5.242l0.052 0.105c0.802 1.611 1.607 3.222 2.419 4.839 9.869 13.31 22.075 24.784 36.009 33.812 1.394-6.796 2.994-14.392 4.791-22.614-0.95-6.68-1.442-13.51-1.442-20.455 0-4.212 0.331-8.696 0.963-13.411-3.781-2.888-7.186-5.825-10.164-8.803-4.911-4.91-9.393-10.088-13.444-15.483-7.082-4.541-13.587-8.782-19.379-12.603zm372.65 0c-5.791 3.82-12.294 8.059-19.379 12.603-4.051 5.395-8.533 10.573-13.444 15.483-2.978 2.978-6.383 5.915-10.164 8.803 0.632 4.715 0.963 9.199 0.963 13.411 0 6.945-0.492 13.775-1.442 20.455 1.797 8.219 3.397 15.816 4.791 22.614 13.935-9.03 26.142-20.504 36.009-33.812 0.828-1.649 1.652-3.297 2.471-4.944 0.587-1.75 1.172-3.503 1.749-5.242 2.433-16.39 1.915-33.135-1.554-49.371zm157.176 14.421-0.033 0.022c-7.023 4.644-14.657 9.652-22.822 14.955 7.456 21.992 13.517 43.066 17.859 62.856l2.028-1.252 3.998-2.475 3.969-2.463 1.155-0.719c1.24-23.75-0.812-47.64-6.154-70.924zm-687.002 0c-5.343 23.289-7.395 47.183-6.154 70.924 3.678 2.287 7.396 4.591 11.15 6.909 4.341-19.785 10.401-40.858 17.859-62.856-8.179-5.312-15.822-10.326-22.855-14.977zm343.501-149.896c13.905 3.994 27.879 8.286 41.48 12.849 12.841 6.389 25.756 13.234 38.417 20.245l0.108 0.194c6.964 12.584 13.759 25.408 20.107 38.162l0.03 0.061c4.563 13.598 8.854 27.57 12.849 41.48-3.994 13.905-8.286 27.879-12.849 41.48-6.389 12.841-13.234 25.756-20.245 38.417-12.657 7.008-25.572 13.854-38.417 20.245-13.598 4.563-27.57 8.854-41.48 12.849-13.905-3.994-27.879-8.286-41.48-12.849-12.841-6.389-25.756-13.234-38.417-20.245-7.001-12.645-13.834-25.535-20.215-38.356l-0.03-0.061c-4.563-13.598-8.854-27.57-12.849-41.48 3.994-13.905 8.286-27.879 12.849-41.48 6.389-12.841 13.234-25.756 20.245-38.417 12.519-6.931 25.281-13.7 37.978-20.027l0.439-0.218c13.598-4.563 27.57-8.854 41.48-12.849zm383.233 207.241c-1.335 0.845-2.67 1.69-4.005 2.535l-2.949 1.861c-1.315 3.228-2.692 6.424-4.13 9.589 4.906-5.191 9.618-10.498 14.144-15.926zm-769.526-1.941c4.51 5.409 9.219 10.714 14.124 15.904l0.02 0.022c-1.437-3.163-2.814-6.358-4.13-9.589l-2.949-1.861c-1.335-0.845-2.67-1.69-4.005-2.535zm635.835 4.451c-2.125 1.302-4.265 2.61-6.421 3.923l-0.02 0.013c0.598 2.463 1.189 4.913 1.771 7.337l0.674-1.344c0.392-0.785 0.784-1.57 1.176-2.356l1.512-3.649c0.278-0.832 0.556-1.665 0.834-2.497zm-498.61 1.427c0.278 0.832 0.556 1.665 0.834 2.497l0.63 1.877 0.632 1.272c0.702 1.408 1.406 2.817 2.1 4.2 0.583-2.43 1.173-4.875 1.771-7.337-2.164-1.319-4.315-2.634-6.441-3.936zm-140.016-92.053c0.733 31.096 7.029 60.827 17.939 88.241 4.902 3.09 9.89 6.219 14.95 9.379-0.841-23.674 1.507-47.443 7.044-70.594-19.048-12.655-32.949-22.191-39.933-27.026zm778.168 0c-6.984 4.834-20.888 14.373-39.933 27.026 5.537 23.16 7.884 46.929 7.044 70.594 5.064-3.162 10.049-6.289 14.95-9.379 7.015-17.627 12.124-36.22 15.072-55.518 0.163-1.071 0.32-2.144 0.47-3.219 0.183-1.31 0.356-2.622 0.519-3.938l0.093-0.757 0.013-0.105c0.327-2.72 0.612-5.454 0.853-8.2 0.261-2.962 0.471-5.942 0.629-8.937 0.118-2.229 0.208-4.469 0.268-6.717l0.011-0.39zm-101.498 66.936-0.845 0.534c-8.253 5.217-16.841 10.593-25.725 16.09l-0.095 0.196c-0.935 1.923-1.875 3.848-2.827 5.788 0.31 1.651 0.602 3.288 0.877 4.911 5.983-4.67 11.403-9.405 16.204-14.205 4.32-4.321 8.453-8.757 12.411-13.314zm-575.172 0c3.958 4.557 8.091 8.993 12.411 13.314 4.801 4.8 10.221 9.535 16.204 14.205 0.275-1.626 0.568-3.265 0.877-4.911-0.979-1.996-1.953-3.991-2.922-5.984-9.081-5.619-17.863-11.118-26.288-16.446zm512.301-64.662-0.122 0.293c-1.089 2.61-2.197 5.23-3.321 7.857 7.367 26.526 14.133 52.714 20.249 77.663 2.942-1.795 5.858-3.581 8.751-5.361-5.281-24.535-14.185-51.775-25.557-80.452zm-449.43 0c-11.373 28.681-20.276 55.919-25.557 80.452l1.959 1.204c2.247 1.38 4.511 2.766 6.792 4.157 6.115-24.949 12.882-51.137 20.249-77.663-1.168-2.729-2.317-5.448-3.443-8.15zm604.799-97.135c9.986 27.719 15.428 57.592 15.428 88.727 0 9.241-0.479 18.37-1.413 27.351-0.326 3.137-0.708 6.257-1.142 9.352-0.17 1.209-0.348 2.415-0.534 3.62l-0.058 0.37-0.128 0.811-0.13 0.811-0.123 0.748c-0.064 0.385-0.128 0.769-0.193 1.145l-0.05 0.296c-0.068 0.395-0.136 0.789-0.206 1.185-0.812 4.608-1.744 9.174-2.796 13.706l-0.125 0.54-0.166 0.703c-0.775 3.266-1.611 6.509-2.509 9.729l-0.154 0.552-0.046 0.164c-1.228 4.361-2.566 8.675-4.015 12.951l-0.247 0.725c-0.087 0.253-0.174 0.506-0.261 0.759l-0.108 0.311c-0.334 0.963-0.674 1.924-1.024 2.898 4.047-2.565 8.031-5.099 11.951-7.601l1.565-0.999 3.529-2.257 1.067-0.683c17.846-24.044 32.108-49.919 42.777-76.872l0.125-0.315c-10.692-27.08-24.993-53.056-42.902-77.187-5.884-3.769-11.93-7.622-18.112-11.54zm-760.168 0-2.042 1.295c-5.476 3.475-10.834 6.891-16.07 10.245-17.915 24.137-32.219 50.119-42.902 77.187l0.192 0.485c10.673 26.907 24.909 52.716 42.71 76.702 5.884 3.769 11.93 7.622 18.112 11.54-9.986-27.719-15.428-57.592-15.428-88.727 0-31.135 5.442-61.008 15.428-88.727zm251.587 147.773c-0.203 0.846-0.406 1.689-0.607 2.529l0.095 0.06c10.422 6.638 22.803 12.986 36.46 19.018l-0.161-0.399-0.13-0.323c-12.316-6.969-24.306-14.024-35.657-20.885zm256.994 0-1.527 0.922c-5.238 3.158-10.605 6.353-16.069 9.556l-1.701 0.996-0.7 0.409c-5.014 2.926-10.108 5.858-15.257 8.774l-0.163 0.093-0.24 0.135-0.13 0.323-0.161 0.399c13.698-6.05 26.113-12.418 36.555-19.078-0.201-0.84-0.403-1.682-0.607-2.529zm126.362-139.583c-5.89 24.766-15.136 52.009-26.688 80.537 11.552 28.528 20.798 55.77 26.688 80.537 8.6-26.594 16.773-53.615 24.493-80.537-7.718-26.915-15.891-53.937-24.493-80.537zm-509.718 0c-8.6 26.594-16.773 53.615-24.493 80.537 7.718 26.915 15.891 53.937 24.493 80.537 5.89-24.766 15.136-52.009 26.688-80.537-11.552-28.528-20.798-55.77-26.688-80.537zm542.962 111.697-0.603 1.38c-5.02 11.445-10.268 22.99-15.713 34.603-1.847 3.941-3.717 7.889-5.624 11.876l-0.002 0.005c10.391-6.477 20.35-12.767 29.794-18.798-2.554-9.627-5.171-19.322-7.852-29.066zm-576.206 0c-2.679 9.735-5.296 19.43-7.852 29.066 9.438 6.026 19.396 12.317 29.794 18.798-1.889-3.948-3.769-7.919-5.626-11.881-5.666-12.086-11.12-24.098-16.316-35.983zm150.647 32.466c-0.27 2.665-0.431 5.245-0.475 7.732 0.53-2.288 1.073-4.606 1.626-6.949-0.386-0.26-0.77-0.521-1.151-0.783zm274.912 0c-0.381 0.262-0.765 0.523-1.151 0.783 0.553 2.343 1.095 4.659 1.626 6.949-0.044-2.487-0.205-5.067-0.475-7.732zm-255.575-45.241c-3.159 11.666-6.099 23.15-8.805 34.189 9.718 5.892 19.917 11.933 30.401 17.948-1.3-3.41-2.58-6.86-3.842-10.348-1.93-5.336-3.817-10.761-5.663-16.256-2.58-5.191-5.081-10.361-7.49-15.498-1.575-3.359-3.109-6.704-4.601-10.035zm236.238 0c-1.492 3.331-3.026 6.676-4.601 10.035-2.409 5.137-4.91 10.307-7.49 15.498-1.846 5.495-3.733 10.92-5.663 16.256-1.262 3.488-2.542 6.938-3.842 10.348 10.483-6.014 20.682-12.056 30.401-17.948-2.705-11.038-5.645-22.523-8.805-34.189zm326.29-9.649-0.113 0.27c-8.56 20.423-19.166 40.191-31.821 58.994 15.298-9.885 29.313-19.075 41.777-27.335-2.746-10.767-6.028-21.425-9.843-31.929zm-888.818 0c-3.817 10.51-7.099 21.171-9.843 31.929 12.467 8.262 26.477 17.449 41.777 27.335-12.634-18.775-23.23-38.518-31.782-58.9zm161.775 2.8-0.545 1.932c-0.746 2.65-1.488 5.298-2.229 7.957 5.535 12.852 11.381 25.861 17.482 38.965-5.061-16.213-9.964-32.529-14.708-48.854zm565.268 0c-4.739 16.309-9.644 32.633-14.708 48.854 6.102-13.107 11.948-26.118 17.482-38.965-0.756-2.713-1.517-5.428-2.283-8.15zm-418.789 42.85 0.147 0.091 1.814 1.108-0.499 2.067-0.04 0.167c-0.605-0.422-1.201-0.846-1.788-1.27 0.115-0.716 0.237-1.437 0.366-2.163zm272.163 0.091 0.147-0.091c0.129 0.727 0.251 1.447 0.366 2.163-0.587 0.425-1.183 0.848-1.788 1.27l-0.04-0.167-0.499-2.067zm-433.807-46.07c-4.566 11.439-8.84 22.71-12.78 33.762 2.916 4.61 5.994 9.148 9.236 13.605 2.988-11.227 6.062-22.543 9.218-33.904-1.931-4.508-3.823-8.997-5.674-13.463zm595.598 0-0.358 0.864c-1.729 4.16-3.492 8.339-5.29 12.537l-0.026 0.062c3.156 11.36 6.229 22.674 9.218 33.904 3.241-4.457 6.321-8.996 9.236-13.605-3.94-11.055-8.214-22.324-12.78-33.762zm-149.809 38.668-1.013 0.631c-1.663 1.035-3.346 2.079-5.051 3.132 0.089 0.457 0.176 0.913 0.261 1.368 2.075-1.694 4.013-3.404 5.803-5.131zm-295.98 0c1.791 1.727 3.728 3.437 5.803 5.131 0.085-0.454 0.172-0.911 0.261-1.368-1.675-1.035-3.332-2.063-4.966-3.08zm25.518-38.663c-5.408 13.964-9.684 27.246-12.358 39.338 0.735 0.452 1.474 0.904 2.217 1.359 3.176-12.884 6.665-26.346 10.445-39.981l-0.136-0.32zm244.776 0.396-0.136 0.32c3.781 13.636 7.271 27.104 10.445 39.981 0.742-0.454 1.481-0.907 2.217-1.359-2.674-12.093-6.95-25.376-12.358-39.338zm-329.935-0.614c3.84 13.187 7.823 26.383 11.943 39.476 0.253-9.721 1.482-19.421 3.689-28.944-6.394-4.253-11.683-7.834-15.632-10.532zm415.262 0c-3.951 2.699-9.24 6.28-15.632 10.532 2.206 9.519 3.436 19.219 3.689 28.944 4.119-13.092 8.101-26.283 11.943-39.476zm127.677 0.543c-5.017 11.742-10.93 23.189-17.739 34.241l0.449 1.277 0.5 1.434c8.406-5.464 16.231-10.606 23.385-15.345-1.872-7.276-4.07-14.485-6.595-21.607zm-670.616 0c-2.524 7.122-4.723 14.334-6.595 21.607 7.156 4.74 14.978 9.88 23.385 15.345l0.5-1.434 0.449-1.277c-6.807-11.047-12.718-22.491-17.739-34.241zm194.8-52.985-0.187 0.116c-7.723 4.786-15.04 9.407-21.836 13.76-7.026 9.514-12.674 19.729-16.941 30.372 4.267 10.641 9.915 20.858 16.941 30.372 6.852 4.389 14.235 9.05 22.023 13.876 3.184-13.592 8.226-28.563 14.551-44.248-6.324-15.684-11.366-30.655-14.551-44.248zm281.016 0c-3.184 13.592-8.226 28.563-14.551 44.248 6.324 15.684 11.366 30.655 14.551 44.248 7.792-4.828 15.173-9.489 22.023-13.876 6.955-9.416 12.558-19.521 16.81-30.047l0.131-0.325c-4.267-10.641-9.915-20.858-16.941-30.372-6.852-4.389-14.235-9.05-22.023-13.876zm319.348 7.303c-3.271 12.482-7.248 24.817-11.933 36.945 4.683 12.121 8.659 24.453 11.933 36.945 27.594-18.349 46.809-31.606 54.488-36.945v0c-7.679-5.339-26.894-18.596-54.488-36.945zm-919.712 0c-27.594 18.349-46.809 31.606-54.488 36.945v0c7.679 5.339 26.894 18.596 54.488 36.945 3.271-12.482 7.248-24.817 11.933-36.945-4.683-12.121-8.659-24.453-11.933-36.945zm774.661 1.701-0.253 0.698c-4.116 11.323-8.565 22.855-13.306 34.546 4.84 11.937 9.375 23.704 13.559 35.244 6.697-11.378 12.438-23.165 17.226-35.244-4.788-12.08-10.529-23.866-17.226-35.244zm-629.61 0c-6.697 11.378-12.438 23.165-17.226 35.244 4.788 12.08 10.529 23.866 17.226 35.244 4.186-11.545 8.72-23.309 13.559-35.244-4.84-11.937-9.375-23.704-13.559-35.244zm-32.696 8.616c-19.307 12.849-33.054 22.311-39.276 26.628v0l1.227 0.851c6.701 4.639 19.924 13.715 38.049 25.777 2.395-8.993 5.277-17.883 8.645-26.628-3.368-8.745-6.25-17.636-8.645-26.628zm695.002 0c-2.395 8.993-5.277 17.883-8.645 26.628 3.368 8.745 6.25 17.636 8.645 26.628 19.307-12.849 33.054-22.311 39.276-26.628v0c-6.221-4.317-19.969-13.779-39.276-26.628zm-530.138 35.364c-0.77 2.374-1.475 4.765-2.114 7.174 2.798 1.851 5.776 3.81 8.92 5.863-2.504-4.248-4.772-8.598-6.806-13.037zm365.274 0-0.056 0.122c-2.018 4.392-4.268 8.702-6.75 12.915 3.142-2.052 6.121-4.011 8.92-5.863-0.639-2.406-1.344-4.798-2.114-7.174zm-372.965-20.941c-8.173 5.453-14.362 9.688-18.009 12.205v0c3.647 2.517 9.836 6.752 18.009 12.205 1.159-4.115 2.502-8.188 4.031-12.205-1.529-4.018-2.873-8.091-4.031-12.205zm380.656 0c-1.159 4.115-2.502 8.188-4.031 12.205 1.529 4.018 2.873 8.091 4.031 12.205 8.173-5.453 14.362-9.688 18.009-12.205v0c-3.647-2.517-9.836-6.752-18.009-12.205zm-479.716 0.122c-1.706 4.048-3.379 8.08-5.015 12.083 1.639 4.01 3.311 8.04 5.015 12.083 1.133-4.026 2.277-8.057 3.428-12.083-1.151-4.024-2.292-8.045-3.428-12.083zm578.776 0c-1.133 4.026-2.277 8.057-3.428 12.083 1.151 4.024 2.292 8.045 3.428 12.083 1.706-4.048 3.379-8.08 5.015-12.083-1.553-3.802-3.137-7.621-4.751-11.457zm-507.917 5.32c-0.946 2.261-1.88 4.515-2.799 6.763 0.919 2.247 1.853 4.502 2.799 6.763 0.36-1.273 0.721-2.548 1.084-3.824l0.37-1.299-0.007-0.707-0.003-0.933c0-0.55 0.003-1.098 0.01-1.64l-0.515-1.81c-0.197-0.693-0.394-1.386-0.59-2.079zm436.709 1.234c-0.196 0.693-0.393 1.386-0.59 2.079l-0.515 1.81 0.007 0.707 0.003 0.933s-0.003 0.933-0.003 0.933l-0.007 0.707 0.325 1.141c0.377 1.326 0.753 2.652 1.129 3.982 0.946-2.261 1.88-4.515 2.799-6.763-0.919-2.245-1.851-4.498-2.797-6.758l-0.002-0.005zm-685.594-170.753c-30.294 49.792-48.149 107.948-49.25 170.155 8.643-5.996 27.988-19.305 55.164-37.354-10.501-43.511-12.473-88.673-5.914-132.801zm934.828 0c6.557 44.125 4.587 89.279-5.914 132.801 27.145 18.028 46.484 31.332 55.14 37.337l0.024 0.017c-1.101-62.215-18.958-120.375-49.25-170.155zm-823.609 72.528c-5.056 3.157-10.032 6.279-14.918 9.358l-0.032 0.021c-10.905 27.403-17.205 57.139-17.939 88.241 6.956-4.815 20.78-14.299 39.72-26.885l0.213-0.141c-5.537-23.16-7.884-46.929-7.044-70.594zm712.39 0c0.841 23.674-1.507 47.443-7.044 70.594 19.048 12.655 32.949 22.191 39.933 27.026-0.733-31.096-7.029-60.827-17.939-88.241-4.902-3.09-9.89-6.219-14.95-9.379zm-551.883 56.084c-4.119 13.092-8.101 26.283-11.943 39.476l0.083-0.056 1.278-0.873c0.957-0.652 1.981-1.348 3.073-2.087 3.199-2.168 6.954-4.693 11.198-7.516-2.206-9.519-3.436-19.219-3.689-28.944zm391.376 0c-0.253 9.721-1.482 19.421-3.689 28.944s0.182 0.121 0.182 0.121c6.31 4.199 11.536 7.737 15.45 10.411-3.84-13.187-7.823-26.383-11.943-39.476zm105.655-8.104c-2.988 11.227-6.062 22.543-9.218 33.904 1.931 4.508 3.823 8.997 5.674 13.463 4.566-11.439 8.84-22.71 12.78-33.762-2.916-4.61-5.994-9.148-9.236-13.605zm-602.686 0c-3.241 4.457-6.321 8.996-9.236 13.605l0.058 0.164c3.926 11.005 8.18 22.221 12.722 33.598l0.002-0.005c1.851-4.464 3.742-8.951 5.672-13.458-3.156-11.36-6.229-22.674-9.218-33.904zm59.822-38.447c-2.942 1.795-5.858 3.581-8.751 5.361l0.084 0.39c5.291 24.432 14.16 51.533 25.471 80.058l0.002 0.004c0.997-2.392 2.009-4.791 3.036-7.199l0.407-0.951c-7.367-26.526-14.133-52.714-20.249-77.663zm483.042 0c-6.115 24.949-12.882 51.137-20.249 77.663 1.168 2.729 2.317 5.448 3.443 8.15 11.373-28.681 20.276-55.919 25.557-80.452-2.89-1.778-5.808-3.565-8.751-5.361zm-108.908 45.112c-3.176 12.884-6.665 26.346-10.445 39.981l0.136 0.32 0.168 0.396c5.408-13.964 9.684-27.246 12.358-39.338-0.735-0.452-1.474-0.904-2.217-1.359zm-265.226 0-0.196 0.12c-0.67 0.41-1.338 0.82-2.007 1.231l-0.014 0.008c2.674 12.093 6.95 25.376 12.358 39.338l0.168-0.396 0.136-0.32c-3.781-13.636-7.271-27.104-10.445-39.981zm308.444 27.336c2.504 4.248 4.772 8.598 6.806 13.037 0.77-2.374 1.475-4.765 2.114-7.174-2.798-1.851-5.776-3.81-8.92-5.863zm-351.662 0c-1.409 0.92-2.785 1.821-4.127 2.704l-0.661 0.433c-0.755 0.498-1.51 0.995-2.266 1.492l-1.866 1.234c0.639 2.406 1.344 4.798 2.114 7.174 2.032-4.434 4.301-8.785 6.806-13.037zm588.306-46.227c12.707 18.883 23.351 38.744 31.934 59.264 3.817-10.51 7.099-21.171 9.843-31.929-12.467-8.262-26.477-17.449-41.777-27.335zm-824.95 0-1.385 0.895c-14.755 9.542-28.298 18.425-40.392 26.44 2.746 10.767 6.028 21.425 9.843 31.929 8.585-20.526 19.23-40.386 31.934-59.264zm93.957 22.311c-8.406 5.464-16.231 10.606-23.385 15.345 1.863 7.237 4.047 14.409 6.552 21.486l0.043 0.121c5.017-11.742 10.93-23.189 17.739-34.241l-0.449-1.277zm637.036 0-0.5 1.434-0.449 1.277c6.807 11.047 12.718 22.491 17.739 34.241 2.524-7.122 4.723-14.334 6.595-21.607-7.156-4.74-14.978-9.88-23.385-15.345zm-50.592-14.701 0.433 1.386c4.913 15.774 9.676 31.641 14.275 47.468 0.934-3.306 1.86-6.61 2.774-9.889l-0.005-0.01c-5.531-12.843-11.376-25.851-17.477-38.955zm-535.852 0c-6.102 13.107-11.948 26.118-17.482 38.965 0.917 3.292 1.842 6.588 2.774 9.889 4.739-16.309 9.644-32.633 14.708-48.854zm364.449-10.132c1.3 3.41 2.58 6.86 3.842 10.348 1.93 5.336 3.817 10.761 5.663 16.256 2.58 5.191 5.081 10.361 7.49 15.498 1.575 3.359 3.109 6.704 4.601 10.035 3.159-11.666 6.099-23.15 8.805-34.189-9.718-5.892-19.917-11.933-30.401-17.948zm-193.046 0-0.004 0.002c-5.84 3.351-11.592 6.71-17.215 10.043-1.718 1.018-3.425 2.035-5.126 3.052-2.717 1.625-5.403 3.243-8.056 4.851 2.705 11.038 5.645 22.523 8.805 34.189 1.492-3.331 3.026-6.676 4.601-10.035 2.392-5.101 4.875-10.236 7.438-15.394l0.052-0.104c1.846-5.495 3.733-10.92 5.663-16.256 1.262-3.488 2.542-6.938 3.842-10.348zm-51.127-45.331c-1.252 0.812-2.491 1.643-3.711 2.491l-0.577 0.403-0.187 0.132c-12.081 8.514-22.735 18.919-31.534 30.786-0.828 1.649-1.652 3.297-2.471 4.944-0.587 1.75-1.172 3.503-1.749 5.242-2.433 16.39-1.915 33.135 1.554 49.371 4.629-3.053 9.712-6.374 15.18-9.903l1.414-0.911 1.526-0.981 1.259-0.808c4.051-5.395 8.533-10.573 13.444-15.483 2.978-2.978 6.383-5.915 10.164-8.803-0.632-4.715-0.963-9.199-0.963-13.411 0-6.945 0.492-13.775 1.442-20.455-1.797-8.219-3.397-15.816-4.791-22.614zm295.3 0c-1.394 6.796-2.994 14.392-4.791 22.614 0.95 6.68 1.442 13.51 1.442 20.455 0 4.212-0.331 8.696-0.963 13.411 3.781 2.888 7.186 5.825 10.164 8.803 4.911 4.91 9.393 10.088 13.444 15.483 6.968 4.468 13.376 8.645 19.096 12.416l0.283 0.187c3.469-16.239 3.987-32.983 1.554-49.371-0.581-1.751-1.164-3.499-1.749-5.242-0.739-1.485-1.481-2.971-2.218-4.441l-0.253-0.503c-9.869-13.31-22.075-24.784-36.009-33.812zm24.237-19.49c1.447 3.718 2.882 7.468 4.304 11.246l0.008 0.02c8.083 13.875 13.659 28.815 16.727 44.165 8.681 13.016 15.304 27.523 19.401 43.056 1.669 3.683 3.308 7.355 4.918 11.016 6.732-24.558 12.942-48.75 18.587-71.845-20.325-12.341-41.82-25.054-63.945-37.658zm-343.774 0c-22.126 12.604-43.623 25.32-63.945 37.658 5.646 23.099 11.855 47.287 18.587 71.845 1.609-3.658 3.248-7.331 4.918-11.016 4.095-15.527 10.717-30.033 19.401-43.056 3.066-15.343 8.641-30.284 16.727-44.165 1.425-3.784 2.861-7.539 4.312-11.266zm438.048 56.319c1.889 3.948 3.769 7.919 5.626 11.881 5.666 12.086 11.12 24.098 16.316 35.983 2.679-9.735 5.296-19.43 7.852-29.066-9.438-6.026-19.396-12.317-29.794-18.798zm-532.322 0c-10.391 6.477-20.35 12.767-29.794 18.798 2.554 9.627 5.171 19.322 7.852 29.066 5.196-11.885 10.65-23.897 16.316-35.983 1.857-3.962 3.737-7.933 5.626-11.881zm-72.344-35.714-1.976 1.22c-2.985 1.846-5.947 3.682-8.887 5.511l-0.287 0.178c-1.24 23.75 0.812 47.64 6.154 70.924 7.029-4.649 14.671-9.662 22.855-14.977-7.456-21.992-13.517-43.066-17.859-62.856zm677.01 0c-4.341 19.785-10.401 40.858-17.859 62.856 8.179 5.312 15.822 10.326 22.855 14.977 5.343-23.289 7.395-47.183 6.154-70.924-3.678-2.287-7.396-4.591-11.15-6.909zm-480.692 62.532c-2.075 1.694-4.013 3.404-5.803 5.131 1.993-1.242 4.016-2.498 6.064-3.763-0.089-0.457-0.176-0.913-0.261-1.368zm284.374 0c-0.085 0.454-0.172 0.911-0.261 1.368 2.048 1.265 4.069 2.52 6.064 3.763-1.791-1.727-3.728-3.437-5.803-5.131zm-497.918-236.742-0.642 0.4c-40.608 25.328-75.492 58.986-102.257 98.577-9.116 47.166-8.192 95.894 2.773 142.748 15.585-10.314 33.496-22.018 53.247-34.679 9.861-13.192 20.77-25.824 32.74-37.794 2.131-2.131 4.353-4.253 6.665-6.367 3.674-6.675 7.63-13.173 11.85-19.473 1.471-7.442 3.268-14.832 5.39-22.149-0.139-3.13-0.21-6.201-0.21-9.215 0-16.928 1.218-33.574 3.573-49.875-5.013-22.913-9.401-43.854-13.129-62.173zm711.462 0c-3.727 18.313-8.115 39.254-13.129 62.173l0.052 0.364c2.32 16.163 3.521 32.698 3.521 49.511 0 3.014-0.071 6.085-0.21 9.215 2.122 7.318 3.919 14.71 5.39 22.149 4.222 6.303 8.177 12.799 11.85 19.473 2.312 2.114 4.534 4.236 6.665 6.367 11.97 11.97 22.879 24.602 32.74 37.794 19.747 12.658 37.657 24.362 53.247 34.679 10.969-46.842 11.894-95.572 2.773-142.748l-0.008-0.012c-26.902-39.792-62.009-73.591-102.891-98.965zm-490.464 231.129 0.04 0.167 0.499 2.067-1.814 1.108-0.147 0.091c-0.129-0.727-0.251-1.447-0.366-2.163 0.587-0.425 1.183-0.848 1.788-1.27zm269.426 0.167 0.04-0.167c0.605 0.422 1.201 0.846 1.788 1.27-0.115 0.716-0.237 1.437-0.366 2.163l-0.147-0.091-1.814-1.108zm-454.076-68.82-0.381 0.233c-4.39 2.677-8.736 5.34-13.039 7.987 4.216 19.743 10.206 40.814 17.626 62.827 3.512-2.271 7.115-4.591 10.811-6.96 0.312-0.417 0.626-0.834 0.941-1.25-5.637-21.386-10.96-42.42-15.958-62.837zm638.766 0c-4.996 20.408-10.32 41.447-15.958 62.837 0.319 0.421 0.636 0.843 0.941 1.25 3.691 2.366 7.296 4.687 10.811 6.96 7.422-22.018 13.412-43.087 17.626-62.827-4.423-2.721-8.894-5.46-13.42-8.22zm-226.673 46.218 0.13 0.323c12.316 6.969 24.306 14.024 35.657 20.885 0.203-0.846 0.406-1.689 0.607-2.529-10.443-6.66-22.859-13.029-36.555-19.078zm-185.259-0.399c-13.698 6.05-26.113 12.418-36.555 19.078 0.201 0.84 0.403 1.682 0.607 2.529 2.858-1.727 5.755-3.466 8.687-5.213 0.948-0.564 1.899-1.13 2.857-1.697l1.839-1.089 0.783-0.462c7.006-4.133 14.19-8.293 21.491-12.424l0.13-0.323zm-45.382 9.295c0.043 2.422 0.197 4.931 0.453 7.517l0.022 0.215c0.381-0.262 0.765-0.523 1.151-0.783-0.553-2.343-1.095-4.659-1.626-6.949zm275.862 0c-0.53 2.288-1.073 4.606-1.626 6.949 0.386 0.26 0.77 0.521 1.151 0.783 0.27-2.665 0.431-5.245 0.475-7.732zm-44.481-65.045c-7.948 1.742-16.464 3.666-25.384 5.761 7.359 11.862 14.38 26.013 20.999 41.577 15.563 6.619 29.713 13.639 41.577 20.999 2.096-8.924 4.02-17.439 5.761-25.384-1.759-11.696-4.989-22.913-9.497-33.456-10.542-4.507-21.76-7.738-33.456-9.497zm-186.9 0c-5.679 0.854-11.245 2.055-16.67 3.58l-0.41 0.115-0.817 0.235-0.46 0.135c-0.48 0.142-0.959 0.286-1.439 0.433l-0.539 0.166-0.809 0.255-0.017 0.005c-0.93 0.296-1.856 0.602-2.785 0.92-2.653 0.908-5.271 1.894-7.855 2.959l-0.431 0.178-0.775 0.325-0.449 0.191c-4.507 10.542-7.738 21.76-9.497 33.456 1.742 7.948 3.666 16.464 5.761 25.384 11.862-7.359 26.013-14.38 41.577-20.999 6.619-15.563 13.639-29.713 20.999-41.577-8.924-2.096-17.439-4.02-25.384-5.761zm-167.07-25.235c-18.228 10.658-36.011 21.279-53.172 31.703 4.762 19.498 9.827 39.588 15.182 60.015 5.846-7.247 12.122-14.24 18.841-20.958 5.706-5.706 12.272-11.326 19.593-16.849-1.271-9.082-1.941-17.699-1.941-25.769 0-9.501 0.507-18.884 1.497-28.142zm521.04 0c0.99 9.258 1.497 18.641 1.497 28.142 0 8.07-0.67 16.687-1.941 25.769 7.321 5.523 13.887 11.143 19.593 16.849 6.719 6.718 12.995 13.711 18.841 20.958 5.354-20.426 10.418-40.51 15.182-60.015-17.155-10.421-34.942-21.045-53.172-31.703zm-519.491 61.049c-5.983 4.67-11.403 9.405-16.204 14.205-4.32 4.321-8.453 8.757-12.411 13.314 8.514-5.385 17.39-10.944 26.57-16.624 0.966-1.987 1.937-3.975 2.922-5.984-0.31-1.651-0.602-3.288-0.877-4.911zm517.942 0c-0.275 1.626-0.568 3.265-0.877 4.911 0.979 1.996 1.953 3.991 2.922 5.984 9.181 5.681 18.057 11.24 26.57 16.624-3.958-4.557-8.091-8.993-12.411-13.314-4.801-4.8-10.221-9.535-16.204-14.205zm-631.12-7.646c-4.906 5.191-9.618 10.498-14.144 15.926l3.06-1.941c1.335-0.845 2.67-1.69 4.005-2.535l2.949-1.861c1.315-3.228 2.692-6.424 4.13-9.589zm744.298 0c1.437 3.163 2.814 6.358 4.13 9.589l2.706 1.708c2.379 1.504 4.737 2.997 7.077 4.482l0.231 0.147c-4.516-5.416-9.231-10.728-14.144-15.926zm-433.724-20.869-0.006 0.011c-6.658 10.438-13.024 22.85-19.072 36.544l0.399-0.161 0.323-0.13c6.797-12.012 13.675-23.714 20.381-34.822l0.504-0.835c-0.846-0.203-1.689-0.406-2.529-0.607zm123.15 0c-0.84 0.201-1.682 0.403-2.529 0.607 6.865 11.356 13.917 23.342 20.885 35.657l0.323 0.13 0.399 0.161c-6.05-13.698-12.418-26.113-19.078-36.555zm-114.149 2.18c-5.892 9.718-11.933 19.917-17.948 30.401 3.41-1.3 6.86-2.58 10.348-3.842 5.336-1.93 10.761-3.817 16.256-5.663l0.701-0.349c1.445-0.716 2.889-1.426 4.331-2.13 1.464-0.715 2.927-1.424 4.389-2.126l0.304-0.146c1.936-0.929 3.857-1.84 5.773-2.739 3.359-1.575 6.704-3.109 10.035-4.601-11.666-3.159-23.15-6.099-34.189-8.805zm105.148 0c-11.038 2.705-22.523 5.645-34.189 8.805 3.331 1.492 6.676 3.026 10.035 4.601 5.137 2.409 10.307 4.91 15.498 7.49 5.495 1.846 10.92 3.733 16.256 5.663 3.488 1.262 6.938 2.542 10.348 3.842l-0.352-0.615-1.022-1.775-1.021-1.769-1.022-1.763-1.022-1.757-0.226-0.388c-4.463-7.657-8.915-15.129-13.283-22.334zm-298.12 20.235c-0.392 0.785-0.784 1.57-1.176 2.356l-0.882 1.772-0.506 1.508c-0.433 1.293-0.865 2.587-1.301 3.901l-0.131 0.392c1.869-1.145 3.748-2.294 5.644-3.45l0.797-0.486c-0.598-2.463-1.189-4.913-1.771-7.337zm490.418-1.344c-0.583 2.43-1.173 4.875-1.771 7.337 2.164 1.319 4.315 2.634 6.441 3.936l-0.474-1.427c-0.278-0.832-0.556-1.665-0.834-2.497l-0.63-1.877c-0.702-1.412-1.406-2.823-2.108-4.227zm-80.029-44.919 0.046 0.111c1.1 2.675 2.194 5.371 3.282 8.086l0.95 0.537c23.512 13.306 46.374 26.782 67.943 39.854l0.342 0.207c0.81-3.35 1.609-6.674 2.397-9.978-21.083-13.615-46.641-26.58-74.96-38.817zm-329.686 0c-28.322 12.238-53.878 25.203-74.96 38.817 0.787 3.3 1.586 6.627 2.397 9.978 21.641-13.12 44.579-26.644 68.177-40l1.058-0.598c1.104-2.755 2.214-5.49 3.328-8.197zm-189.705 27.681c-1.218 1.058-2.414 2.119-3.587 3.184-3.109 5.703-6.007 11.537-8.681 17.488l4.004-2.509c1.4-0.874 2.8-1.749 4.199-2.623l2.806-1.749c0.299-4.608 0.719-9.209 1.259-13.791zm709.096 0c0.541 4.585 0.961 9.183 1.259 13.791l2.806 1.749c1.399 0.874 2.799 1.749 4.199 2.623l4.004 2.509c-2.676-5.955-5.573-11.788-8.681-17.488-1.172-1.064-2.368-2.125-3.587-3.184zm-507.159-15.752c-6.61 12.04-13.124 24.187-19.469 36.358 6.37-6.046 13.29-11.518 20.677-16.329l0.136-0.089 0.72-0.465c0.512-0.329 1.026-0.654 1.542-0.975-1.514-7.528-2.722-13.8-3.606-18.5zm305.222 0c-0.885 4.702-2.093 10.974-3.606 18.5 8.291 5.171 16.02 11.161 23.075 17.858-6.345-12.17-12.857-24.313-19.469-36.358zm-17.29 18.057c1.698 4.572 3.171 9.252 4.406 14.03 0.771-3.672 1.492-7.164 2.162-10.452-2.153-1.25-4.343-2.443-6.568-3.578zm-270.642 0-0.212 0.108c-0.834 0.427-1.664 0.862-2.494 1.31l-0.487 0.263-0.731 0.4-0.147 0.082c-0.838 0.463-1.67 0.934-2.497 1.415 0.67 3.287 1.39 6.777 2.162 10.452 1.233-4.774 2.705-9.453 4.406-14.03zm-119.701-28.72c-0.424 6.021-0.639 12.081-0.639 18.19 0 6.79 0.485 13.971 1.414 21.503 1.344-0.955 2.71-1.907 4.093-2.852 0.719-2.104 1.44-4.203 2.164-6.298-2.474-10.509-4.82-20.716-7.032-30.543zm510.044 0c-2.212 9.828-4.558 20.036-7.032 30.543 0.722 2.088 1.441 4.181 2.164 6.298 1.387 0.948 2.752 1.899 4.093 2.852 0.929-7.532 1.414-14.713 1.414-21.503 0-6.109-0.215-12.169-0.639-18.19zm-597.463 16.521c-1.668 1.286-3.304 2.575-4.907 3.868-0.754 5.207-1.347 10.432-1.781 15.665 3.054-1.894 6.134-3.799 9.23-5.708-0.95-4.687-1.799-9.296-2.542-13.825zm684.882 0-0.031 0.191c-0.736 4.467-1.574 9.014-2.511 13.634 3.098 1.91 6.171 3.811 9.23 5.708-0.433-5.237-1.027-10.463-1.781-15.665-1.606-1.295-3.244-2.586-4.907-3.868zm-390.191 0.335c-0.452 0.735-0.904 1.474-1.359 2.217 12.884 3.176 26.346 6.665 39.981 10.445l0.32-0.136 0.396-0.168c-13.964-5.408-27.246-9.684-39.338-12.358zm95.5 0c-12.093 2.674-25.376 6.95-39.338 12.358l0.396 0.168 0.32 0.136c13.636-3.781 27.104-7.271 39.981-10.445-0.454-0.742-0.907-1.481-1.359-2.217zm75.514-102.331c13.347 21.677 26.074 47.479 38.077 75.82 28.341 12.003 54.142 24.729 75.82 38.077-12.724-24.886-26.051-49.772-39.629-74.268-24.49-13.574-49.376-26.902-74.268-39.629zm-246.528 0c-24.886 12.724-49.772 26.051-74.268 39.629-13.574 24.49-26.902 49.376-39.629 74.268 21.677-13.347 47.479-26.074 75.82-38.077 12.003-28.341 24.729-54.142 38.077-75.82zm-201.321 89.173c-4.193 2.818-8.239 5.657-12.13 8.516l0.009 0.061c0.728 4.754 1.579 9.603 2.547 14.538 4.354-2.675 8.755-5.368 13.198-8.074-1.228-5.052-2.435-10.063-3.624-15.041zm649.17 0c-1.187 4.971-2.395 9.987-3.624 15.041 4.441 2.705 8.837 5.395 13.198 8.074 0.972-4.957 1.826-9.826 2.556-14.599-3.89-2.858-7.936-5.697-12.13-8.516zm-181.373 22.036c1.924-9.635 3.306-17.006 4.104-21.364v-0.001c-4.358 0.799-11.728 2.181-21.364 4.105 2.09 3.728 4.02 7.559 5.78 11.48 3.922 1.76 7.752 3.69 11.48 5.78zm-269.164-17.26c-9.635-1.924-17.006-3.306-21.364-4.104h-0.001c0.799 4.358 2.181 11.728 4.105 21.364 2.042-1.145 4.115-2.242 6.217-3.289 0.406-0.203 0.814-0.403 1.224-0.602 1.334-0.65 2.68-1.279 4.039-1.889 1.76-3.922 3.69-7.752 5.78-11.48zm125.952-36.26c-10.641 4.267-20.858 9.915-30.372 16.941-4.389 6.852-9.05 14.235-13.876 22.023l0.097 0.023c13.564 3.185 28.5 8.217 44.151 14.528 15.684-6.324 30.655-11.366 44.248-14.551-4.828-7.792-9.489-15.173-13.876-22.023-9.514-7.026-19.729-12.674-30.372-16.941zm225.753-2.214c4.73 12.078 9.367 24.428 13.907 36.981 1.488 4.115 2.966 8.252 4.423 12.379 2.768-11.927 5.361-23.417 7.775-34.359-8.613-5.002-17.319-10.007-26.105-15.001zm-451.506 0c-8.778 4.989-17.484 9.994-26.105 15.001 2.412 10.935 5.006 22.424 7.775 34.359 1.457-4.127 2.935-8.264 4.423-12.379 4.54-12.553 9.177-24.903 13.907-36.981zm169.204 45.165c0.716 0.115 1.437 0.237 2.163 0.366l-0.091 0.147-1.108 1.814-2.067-0.499-0.167-0.04c0.422-0.605 0.846-1.201 1.27-1.788zm113.098 0c0.425 0.587 0.848 1.183 1.27 1.788l-0.167 0.04-2.067 0.499-1.108-1.814-0.091-0.147c0.727-0.129 1.447-0.251 2.163-0.366zm-175.937-5.368c-1.25 2.153-2.443 4.343-3.578 6.568 4.572-1.698 9.252-3.171 14.03-4.406-3.672-0.771-7.164-1.492-10.452-2.162zm238.776 0c-3.287 0.67-6.777 1.39-10.452 2.162 4.774 1.233 9.453 2.705 14.03 4.406-1.134-2.224-2.326-4.412-3.578-6.568zm-190.746 3.958c2.288 0.53 4.606 1.073 6.949 1.626 0.26-0.386 0.521-0.77 0.783-1.151-2.665-0.27-5.245-0.431-7.732-0.475zm142.716 0-0.155 0.003c-2.387 0.047-4.859 0.201-7.414 0.455l-0.163 0.017c0.262 0.381 0.523 0.765 0.783 1.151 2.343-0.553 4.659-1.095 6.949-1.626zm-333.413-45.742c-20.818 10.321-39.951 20.984-56.889 31.963 1.203 5.051 2.428 10.15 3.677 15.302 17.963-10.899 36.604-22.011 55.716-33.149 0.073-0.523 0.146-1.046 0.219-1.55-0.937-4.282-1.845-8.473-2.723-12.566zm524.11 0c-0.878 4.089-1.785 8.278-2.723 12.566l0.025 0.173c0.066 0.459 0.131 0.918 0.194 1.377 19.107 11.136 37.745 22.245 55.716 33.149 1.247-5.143 2.472-10.243 3.677-15.302-16.942-10.98-36.076-21.644-56.889-31.963zm81.87 38.514c-0.126 0.95-0.257 1.904-0.392 2.863 0.773 0.582 1.541 1.164 2.301 1.747-0.152-0.834-0.308-1.667-0.47-2.506-0.478-0.706-0.96-1.41-1.439-2.104zm-687.85 0c-0.439 0.636-0.875 1.273-1.308 1.911l-0.131 0.193c-0.162 0.838-0.319 1.677-0.47 2.506 0.76-0.583 1.527-1.165 2.301-1.747-0.135-0.958-0.266-1.913-0.392-2.863zm296.85-2.831c-1.727 1.791-3.437 3.728-5.131 5.803 0.454 0.085 0.911 0.172 1.368 0.261 1.062-1.718 2.115-3.417 3.157-5.091zm94.15 0c1.242 1.993 2.498 4.016 3.763 6.064 0.457-0.089 0.913-0.176 1.368-0.261-1.694-2.075-3.404-4.013-5.131-5.803zm-69.559-38.335c-16.239-3.469-32.983-3.987-49.371-1.554-1.751 0.581-3.499 1.164-5.242 1.749-1.653 0.823-3.307 1.649-4.944 2.471-13.31 9.869-24.784 22.075-33.812 36.009 6.796 1.394 14.392 2.994 22.614 4.791 6.68-0.95 13.51-1.442 20.455-1.442l0.615 0.002c4.032 0.031 8.309 0.36 12.796 0.961 2.888-3.781 5.825-7.186 8.803-10.164 4.91-4.911 10.088-9.393 15.483-13.444 4.541-7.082 8.782-13.587 12.603-19.379zm73.95-3.059c-9.718 0-19.436 1.02-28.982 3.059 3.82 5.791 8.059 12.294 12.603 19.379 5.395 4.051 10.573 8.533 15.483 13.444 2.978 2.978 5.915 6.383 8.803 10.164 4.715-0.632 9.199-0.963 13.411-0.963 6.945 0 13.775 0.492 20.455 1.442 8.219-1.797 15.816-3.397 22.614-4.791-6.657-10.273-14.642-19.607-23.715-27.76l-0.022-0.02-0.236-0.211c-3.154-2.819-6.437-5.496-9.839-8.018-1.649-0.828-3.297-1.652-4.944-2.471-1.75-0.587-3.503-1.172-5.242-1.749-6.481-0.962-13.017-1.462-19.561-1.502zm-380.101 24.277c-3.397 4.009-6.673 8.125-9.818 12.336 0.22 2.051 0.465 4.123 0.735 6.205 3.726-2.676 7.585-5.335 11.573-7.978-0.84-3.542-1.669-7.058-2.49-10.563zm657.27 0c-0.82 3.498-1.65 7.023-2.49 10.563 3.986 2.642 7.846 5.301 11.573 7.978 0.271-2.089 0.516-4.158 0.735-6.205-3.149-4.215-6.424-8.329-9.818-12.336zm-120.626-26.589c8.181 14.884 16.256 29.895 24.146 44.946-4.954-13.583-10.02-26.917-15.191-39.914-2.977-1.679-5.961-3.356-8.955-5.032zm-416.018 0c-2.999 1.678-5.99 3.359-8.955 5.032-5.173 13.001-10.239 26.334-15.191 39.914 7.886-15.043 15.957-30.047 24.146-44.946zm103.344 19.616c-12.17 6.345-24.313 12.857-36.358 19.469 4.702 0.885 10.974 2.093 18.5 3.606 5.171-8.291 11.161-16.02 17.858-23.075zm209.33 0c6.695 7.053 12.685 14.781 17.857 23.072l0.001 0.003c7.528-1.514 13.8-2.722 18.5-3.606-12.04-6.61-24.187-13.124-36.358-19.469zm45.702 13.893c0.351 0.63 0.702 1.259 1.053 1.888l0.915 1.644c0.388 0.378 0.779 0.764 1.167 1.153s0.657 0.661 0.657 0.661l0.496 0.506 1.644 0.915c0.629 0.351 1.258 0.702 1.888 1.053l1.119 0.626c-0.893-2.177-1.789-4.341-2.686-6.482l-0.118-0.279c-2.238-0.939-4.493-1.874-6.761-2.804zm-300.108-1.119c-2.268 0.93-4.522 1.864-6.761 2.804-0.939 2.238-1.874 4.493-2.804 6.761 1.017-0.569 2.034-1.137 3.049-1.702l1.602-0.892c0.378-0.388 0.764-0.779 1.153-1.167s0.661-0.657 0.661-0.657l0.506-0.496 0.915-1.644c0.351-0.629 0.702-1.258 1.053-1.888zm-119.247-57.489c-20.246 12.689-38.592 28.134-54.502 45.798 0.984 4.218 1.983 8.476 2.999 12.77 17.06-10.921 36.246-21.536 57.074-31.818-2.028-9.539-3.887-18.489-5.571-26.75zm537.976 0c-1.684 8.257-3.542 17.205-5.571 26.75 20.823 10.279 40.01 20.895 57.074 31.818 1.015-4.291 2.014-8.545 2.999-12.77-14.002-15.545-29.882-29.365-47.278-41.1l-0.454-0.306c-0.213-0.143-0.426-0.285-0.64-0.428l-0.449-0.299c-1.878-1.247-3.773-2.47-5.681-3.665zm-602.329 31.38c-2.318 6.102-4.395 12.276-6.227 18.504l0.018 0.371c0.069 1.365 0.151 2.74 0.246 4.126l0.02 0.291c2.86-3.625 5.814-7.173 8.862-10.643l-0.747-3.22c-0.372-1.608-0.743-3.216-1.114-4.824zm665.624 4.605c-0.371 1.608-0.742 3.216-1.114 4.824l-0.747 3.22c3.047 3.47 6.003 7.021 8.862 10.643 0.112-1.61 0.207-3.206 0.284-4.788-1.834-6.231-3.91-12.406-6.227-18.504zm-446.418-58.993c-13.615 21.083-26.58 46.641-38.817 74.96 2.711-1.115 5.443-2.225 8.197-3.328 13.081-23.14 26.334-45.661 39.214-66.95l1.384-2.285c-3.35-0.81-6.674-1.609-9.978-2.397zm228.27 0c-3.3 0.787-6.627 1.586-9.978 2.397 13.317 21.966 27.05 45.269 40.598 69.235 2.755 1.104 5.49 2.214 8.197 3.328-12.238-28.322-25.203-53.878-38.817-74.96zm-16.45 3.971c-23.099 5.646-47.287 11.855-71.845 18.587 3.658 1.609 7.331 3.248 11.016 4.918l0.052 0.014 0.618 0.165c1.23 0.331 2.453 0.677 3.666 1.038l0.851 0.256 0.848 0.261 0.139 0.044c1.396 0.436 2.783 0.893 4.166 1.372 2.677 0.927 5.32 1.932 7.922 3.01l0.218 0.09 0.061 0.025c1.185 0.494 2.361 1.003 3.535 1.53 1.353 0.606 2.695 1.233 4.029 1.882 1.434 0.697 2.855 1.418 4.259 2.158l0.771 0.41c0.256 0.138 0.512 0.276 0.768 0.414l0.194 0.107c3.756 2.049 7.411 4.26 10.959 6.625 15.343 3.066 30.284 8.641 44.165 16.727 3.784 1.425 7.539 2.861 11.266 4.312-12.604-22.126-25.32-43.623-37.658-63.945zm-195.37 0c-12.341 20.325-25.054 41.82-37.658 63.945 3.724-1.449 7.48-2.887 11.266-4.312 13.875-8.083 28.815-13.659 44.165-16.727 13.016-8.681 27.523-15.304 43.056-19.401 3.554-1.61 7.096-3.192 10.63-4.748l0.386-0.17c-24.558-6.732-48.75-12.942-71.845-18.587zm-118.835 31.201c-11.318 4.86-22.31 9.807-32.91 14.837-1.199 5.321-2.231 10.707-3.09 16.151 10.052-5.827 20.226-11.655 30.492-17.456 1.755-4.385 3.523-8.731 5.3-13.03zm433.04 0c1.85 4.469 3.686 8.981 5.508 13.532l1.441 0.815c9.777 5.532 19.469 11.087 29.051 16.641-0.86-5.444-1.892-10.831-3.09-16.151-10.603-5.031-21.593-9.978-32.91-14.837zm-232.43 19.88c-1.851 2.798-3.81 5.776-5.863 8.92 4.248-2.504 8.598-4.772 13.037-6.806-2.374-0.77-4.765-1.475-7.174-2.114zm31.82 0c-2.406 0.639-4.798 1.344-7.174 2.114 4.434 2.032 8.785 4.301 13.037 6.806-2.052-3.142-4.011-6.121-5.863-8.92zm-295.371-86.035c-21.471 22.506-38.041 47.981-49.712 75.08 1.282 5.651 2.596 11.391 3.94 17.203 16.145-17.335 34.613-32.482 54.898-44.936-4.52-22.418-7.606-38.99-9.126-47.347zm558.922 0c-1.52 8.356-4.607 24.933-9.126 47.347 20.291 12.461 38.758 27.608 54.898 44.936 1.345-5.816 2.658-11.552 3.94-17.203-11.666-27.088-28.238-52.569-49.712-75.08zm-279.461 62.449v0c-2.517 3.647-6.752 9.836-12.205 18.009 4.115 1.159 8.188 2.502 12.205 4.031 4.018-1.529 8.091-2.873 12.205-4.031-5.453-8.173-9.688-14.362-12.205-18.009zm-338.423 0.459c-0.636 7.023-1.058 14.113-1.259 21.262 1.219-3.252 2.505-6.485 3.859-9.7l-0.768-3.401c-0.347-1.542-0.694-3.083-1.041-4.625zm676.055 3.536c-0.347 1.542-0.694 3.083-1.041 4.625l-0.768 3.401c1.353 3.212 2.639 6.446 3.859 9.7-0.2-7.139-0.622-14.223-1.259-21.262zm-345.826-3.289c-13.187 3.84-26.383 7.823-39.476 11.943 9.721 0.253 19.421 1.482 28.944 3.689 4.253-6.394 7.834-11.683 10.532-15.632zm16.388 0c2.699 3.951 6.28 9.24 10.532 15.632 9.519-2.206 19.219-3.436 28.944-3.689-13.092-4.119-26.283-8.101-39.476-11.943zm235.083-23.29 0.232 0.58c4.651 11.672 8.487 23.755 11.436 36.176l1.221 0.586 1.367 0.66c2.08-9.808 3.978-18.977 5.686-27.387l-0.507-0.298-0.434-0.254c-0.42-0.246-0.84-0.49-1.262-0.733-1.663-0.96-3.338-1.902-5.021-2.824-1.04-0.569-2.085-1.132-3.134-1.687l-0.12-0.063c-0.659-0.349-1.319-0.694-1.979-1.036-0.562-0.291-1.126-0.58-1.688-0.866l-0.205-0.104c-1.852-0.938-3.716-1.855-5.592-2.75zm-486.554 0c-6.786 3.235-13.408 6.76-19.859 10.566l-0.083 0.049c1.708 8.412 3.605 17.578 5.686 27.387l1.367-0.66 1.221-0.586c2.998-12.625 6.91-24.897 11.668-36.756zm439.361 17.749c2.046 3.648 4.087 7.306 6.12 10.968 3.659 2.031 7.309 4.068 10.968 6.12-1.656-4.069-3.323-8.103-4.998-12.09-3.994-1.678-8.026-3.344-12.09-4.998zm-392.168 0c-4.069 1.656-8.103 3.323-12.09 4.998-1.678 3.994-3.344 8.026-4.998 12.09 3.648-2.046 7.306-4.087 10.968-6.12l0.12-0.216c1.993-3.59 3.992-7.171 6-10.752zm-1.596-34.35c-3.621 0.938-7.212 1.953-10.769 3.043l-0.286 0.088-0.238 0.074c-6.206 1.918-12.313 4.066-18.3 6.43l-0.653 0.259-0.401 0.161c-0.395 0.158-0.791 0.317-1.197 0.482-0.702 0.285-1.402 0.573-2.112 0.868l-0.617 0.258-0.717 0.303c-0.606 0.256-1.21 0.515-1.811 0.775-5.157 11.927-9.431 24.32-12.741 37.101 11.123-5.203 22.648-10.316 34.509-15.333 4.888-11.555 9.866-22.792 14.927-33.641zm395.36 0 0.207 0.444c5.132 10.985 10.175 22.36 15.126 34.065 11.863 5.018 23.39 10.131 34.509 15.333-3.31-12.78-7.584-25.175-12.741-37.101-11.927-5.157-24.32-9.431-37.101-12.741zm171.989-113.483c-1.872 10.352-6.14 33.442-12.593 65.421 38.192 23.342 71.52 53.881 98.086 89.722-13.787-56.629-42.284-110.377-85.493-155.143zm-739.338 0c-43.215 44.772-71.712 98.524-85.493 155.143 26.565-35.837 59.887-66.373 98.086-89.722-6.452-31.973-10.722-55.069-12.593-65.421zm142.681 24.859c-21.101 3.122-41.574 8.187-61.222 15.007l-0.521 0.181c-4.14 1.444-8.244 2.967-12.304 4.562-0.58 0.228-1.16 0.458-1.728 0.685l-0.31 0.124c-2.966 1.189-5.912 2.418-8.831 3.683-11.587 26.71-19.843 55.189-24.242 84.916 1.495 6.826 3.046 13.825 4.647 20.967 12.538-26.661 29.814-51.633 51.83-73.648 22.015-22.016 46.987-39.292 73.648-51.83-7.153-1.604-14.151-3.154-20.967-4.647zm453.976 0c-6.826 1.495-13.825 3.046-20.967 4.647 26.661 12.538 51.633 29.814 73.648 51.83 22.016 22.015 39.292 46.987 51.83 73.648 1.604-7.153 3.154-14.151 4.647-20.967-4.399-29.735-12.657-58.221-24.242-84.916-26.71-11.587-55.189-19.843-84.916-24.242zm-80.238 103.991c15.043 7.886 30.047 15.957 44.946 24.146-1.678-2.999-3.359-5.99-5.032-8.955-13.001-5.173-26.334-10.239-39.914-15.191zm-293.5 0c-13.583 4.954-26.917 10.02-39.914 15.191-1.679 2.977-3.356 5.961-5.032 8.955 14.884-8.181 29.895-16.256 44.946-24.146zm-26.893-20.365c-5.444 0.86-10.831 1.892-16.151 3.09l-0.153 0.321c-4.979 10.506-9.875 21.389-14.684 32.589 4.469-1.85 8.981-3.686 13.532-5.508 5.564-9.845 11.152-19.607 16.745-29.266zm347.286 0c5.827 10.052 11.655 20.226 17.456 30.492 4.553 1.823 9.065 3.659 13.532 5.508-4.857-11.311-9.802-22.297-14.832-32.9l-0.005-0.01c-5.321-1.199-10.707-2.231-16.151-3.09zm-173.643 31.192c-2.247 0.919-4.502 1.853-6.763 2.799l1.234 0.349c0.693 0.196 1.386 0.393 2.079 0.59l1.81 0.515c0.542-0.007 1.09-0.01 1.64-0.01s0.933 0.003 0.933 0.003l0.707 0.007 1.81-0.515c0.693-0.197 1.386-0.394 2.079-0.59l1.234-0.349c-2.261-0.946-4.515-1.88-6.763-2.799zm88.86-28.944c-24.535 5.281-51.775 14.185-80.452 25.557 2.693 1.123 5.397 2.265 8.111 3.426l0.039 0.017c26.526-7.367 52.714-14.133 77.663-20.249-1.795-2.942-3.581-5.858-5.361-8.751zm-177.72 0c-1.778 2.89-3.565 5.808-5.361 8.751 24.949 6.115 51.137 12.882 77.663 20.249 2.729-1.168 5.448-2.317 8.15-3.443-28.681-11.373-55.919-20.276-80.452-25.557zm-77.825-1.586c-5.002 8.613-10.007 17.319-15.001 26.105 12.078-4.73 24.428-9.367 36.981-13.907 4.115-1.488 8.252-2.966 12.379-4.423-11.927-2.768-23.417-5.361-34.359-7.775zm333.37 0c-10.935 2.412-22.424 5.006-34.359 7.775 4.127 1.457 8.264 2.935 12.379 4.423 12.553 4.54 24.903 9.177 36.981 13.907-4.868-8.565-9.75-17.06-14.63-25.466zm-393.576-12.691c-22.738-4.567-39.15-7.597-46.602-8.944v0c1.347 7.452 4.377 23.864 8.944 46.602 8.052-4.666 16.376-8.915 24.942-12.716 3.802-8.565 8.051-16.89 12.716-24.942zm491.44 37.658c4.567-22.738 7.597-39.15 8.944-46.602v0c-7.452 1.347-23.864 4.377-46.602 8.944l0.173 0.3c4.597 7.959 8.788 16.183 12.543 24.642 8.565 3.802 16.89 8.051 24.942 12.716zm-264.549-52.461c-26.915 7.718-53.937 15.891-80.537 24.493 24.766 5.89 52.009 15.136 80.537 26.688 28.528-11.552 55.77-20.798 80.537-26.688-26.594-8.6-53.615-16.773-80.537-24.493zm96.76 29.81c1.306 2.131 2.617 4.277 3.936 6.441 2.463-0.598 4.913-1.189 7.337-1.771l-1.344-0.674c-0.785-0.392-1.57-0.784-2.356-1.176l-3.649-1.512c-0.832-0.278-1.665-0.556-2.497-0.834zm-194.947 0.474c-0.832 0.278-1.665 0.556-2.497 0.834l-3.65 1.512c-0.785 0.392-1.57 0.784-2.355 1.176l-1.344 0.674c2.43 0.583 4.875 1.173 7.337 1.771 1.319-2.164 2.634-4.315 3.936-6.441zm-122.119-14.151-0.141 0.24c-3.768 6.395-7.265 12.969-10.474 19.702 5.132-2.059 10.343-3.96 15.623-5.696l0.09-0.03 0.765-0.25c3.59-1.167 7.214-2.258 10.871-3.272 0.518-0.143 1.036-0.285 1.554-0.425 0.5-0.136 1.001-0.27 1.505-0.403 0.907-0.24 1.815-0.474 2.723-0.703 0.693-0.175 1.388-0.348 2.085-0.518 0.512-0.125 1.026-0.249 1.54-0.371l0.586-1.221 0.66-1.367c-9.808-2.08-18.977-3.978-27.387-5.686zm440.612 0c-8.412 1.708-17.578 3.605-27.387 5.686l0.66 1.367 0.586 1.221c12.625 2.998 24.897 6.91 36.756 11.668-3.251-6.821-6.796-13.475-10.615-19.942zm100.116-44.848c8.443 20.584 14.96 42.154 19.325 64.486 3.828-17.807 7.239-34.215 10.213-48.869-9.556-5.672-19.413-10.888-29.538-15.617zm-640.844 0c-10.003 4.673-19.741 9.819-29.177 15.403l-0.361 0.214c2.974 14.657 6.384 31.06 10.213 48.869 4.367-22.337 10.884-43.908 19.325-64.486zm472.108 53.045c-6.021-0.424-12.081-0.639-18.19-0.639-6.79 0-13.971 0.485-21.503 1.414 0.955 1.344 1.907 2.71 2.852 4.093 2.104 0.719 4.203 1.44 6.298 2.164 10.509-2.474 20.716-4.82 30.543-7.032zm-263.679 0.775c-7.532-0.929-14.713-1.414-21.503-1.414-6.109 0-12.169 0.215-18.19 0.639 9.828 2.212 20.036 4.558 30.543 7.032 2.088-0.722 4.181-1.441 6.298-2.164 0.948-1.387 1.899-2.752 2.852-4.093zm185.063-33.339c5.385 8.514 10.944 17.39 16.624 26.57 1.987 0.966 3.975 1.937 5.984 2.922 1.651-0.31 3.288-0.602 4.911-0.877-4.67-5.983-9.405-11.403-14.205-16.204-4.321-4.32-8.757-8.453-13.314-12.411zm-146.14 0c-4.557 3.958-8.993 8.091-13.314 12.411-4.8 4.801-9.535 10.221-14.205 16.204 1.626 0.275 3.265 0.568 4.911 0.877 1.996-0.979 3.991-1.953 5.984-2.922 5.681-9.181 11.24-18.057 16.624-26.57zm224.78-31.358c-5.051 1.203-10.15 2.428-15.302 3.677l0.316 0.521c0.8 1.318 1.6 2.639 2.395 3.954l0.366 0.604 1.383 2.289 1.385 2.297s0.242 0.401 0.242 0.401c8.934 14.827 17.987 30.079 27.062 45.65 0.523 0.073 1.046 0.146 1.55 0.219 4.282-0.937 8.473-1.845 12.566-2.723-10.317-20.809-20.975-39.935-31.947-56.865zm-303.42 0-0.051 0.078c-10.961 16.92-21.606 36.026-31.912 56.811 4.089 0.878 8.278 1.785 12.566 2.723 0.418-0.06 0.836-0.119 1.255-0.178l0.295-0.041c11.136-19.107 22.245-37.745 33.149-55.716-5.143-1.247-10.243-2.472-15.302-3.677zm21.775 5.252c-10.421 17.155-21.045 34.942-31.703 53.172 9.258-0.99 18.641-1.497 28.142-1.497 8.07 0 16.687 0.67 25.769 1.941 5.523-7.321 11.143-13.887 16.849-19.593 6.718-6.719 13.711-12.995 20.958-18.841-20.426-5.354-40.51-10.418-60.015-15.182zm259.87 0c-19.498 4.762-39.588 9.827-60.015 15.182 7.247 5.846 14.24 12.122 20.958 18.841 5.706 5.706 11.326 12.272 16.849 19.593 9.082-1.271 17.699-1.941 25.769-1.941 9.501 0 18.884 0.507 28.142 1.497-10.658-18.228-21.279-36.011-31.703-53.172zm41.062-9.798c-4.218 0.984-8.476 1.983-12.77 2.999 10.921 17.06 21.536 36.246 31.818 57.074 9.539-2.028 18.489-3.887 26.75-5.571-12.689-20.246-28.134-38.592-45.798-54.502zm-341.994 0c-17.671 15.917-33.112 34.26-45.798 54.502 8.257 1.684 17.205 3.542 26.75 5.571 10.279-20.823 20.895-40.01 31.818-57.074-4.291-1.015-8.545-2.014-12.77-2.999zm231.223 27.535c-9.627 2.554-19.322 5.171-29.066 7.852l0.666 0.291c11.68 5.114 23.463 10.467 35.317 16.025 3.855 1.807 7.717 3.635 11.604 5.493l0.277 0.133c-6.477-10.391-12.767-20.35-18.798-29.794zm-120.452 0c-6.026 9.438-12.317 19.396-18.798 29.794 3.948-1.889 7.919-3.769 11.881-5.626 12.086-5.666 24.098-11.12 35.983-16.316-9.735-2.679-19.43-5.296-29.066-7.852zm38.801 10.547-0.348 0.15c-12.739 5.491-25.631 11.286-38.617 17.332 16.213-5.061 32.529-9.964 48.854-14.708-3.306-0.934-6.61-1.86-9.889-2.774zm42.85 0c-3.292 0.917-6.588 1.842-9.889 2.774 16.309 4.739 32.633 9.644 48.854 14.708-13.107-6.102-26.118-11.948-38.965-17.482zm174.281-43.765c-5.651 1.282-11.391 2.596-17.203 3.94 17.335 16.145 32.482 34.613 44.936 54.898 22.418-4.52 38.99-7.606 47.347-9.126-22.506-21.471-47.981-38.041-75.08-49.712zm-391.412 0c-27.088 11.666-52.569 28.238-75.08 49.712 8.356 1.52 24.933 4.607 47.347 9.126 12.461-20.291 27.608-38.758 44.936-54.898-5.816-1.345-11.552-2.658-17.203-3.94zm195.706 34.77c-4.01 1.639-8.04 3.311-12.083 5.015 4.026 1.133 8.057 2.277 12.083 3.428 4.024-1.151 8.045-2.292 12.083-3.428-4.048-1.706-8.08-3.379-12.083-5.015zm42.169-16.176-0.212 0.076c-10.988 3.92-22.185 8.167-33.55 12.704l0.374 0.155c4.343 1.802 8.706 3.642 13.089 5.519 11.36-3.156 22.674-6.229 33.904-9.218-4.457-3.241-8.996-6.321-13.605-9.236zm-84.338 0c-4.61 2.916-9.148 5.994-13.605 9.236 11.227 2.988 22.543 6.062 33.904 9.218 4.508-1.931 8.997-3.823 13.463-5.674-11.439-4.566-22.71-8.84-33.762-12.78zm-256.874-40.713c-32.487-6.537-55.448-10.749-64.653-12.404v0c1.655 9.205 5.867 32.166 12.404 64.653 11.14-6.514 22.674-12.423 34.563-17.686 5.259-11.883 11.167-23.414 17.686-34.563zm650.335 52.249c6.537-32.487 10.749-55.448 12.404-64.653v0c-9.205 1.655-32.166 5.867-64.653 12.404 6.514 11.14 12.423 22.674 17.686 34.563 11.883 5.259 23.414 11.167 34.563 17.686zm-351.292-32.988c-12.08 4.788-23.866 10.529-35.244 17.226l0.677 0.245c11.327 4.117 22.864 8.569 34.567 13.314 11.937-4.84 23.704-9.375 35.244-13.559-11.378-6.697-23.165-12.438-35.244-17.226zm118.252-0.772-0.178 0.038c-19.688 4.213-40.692 10.187-62.649 17.588 2.271 3.512 4.591 7.115 6.96 10.811 0.417 0.312 0.834 0.626 1.25 0.941 21.386-5.637 42.42-10.96 62.837-15.958l-0.077-0.126c-2.73-4.477-5.444-8.908-8.143-13.294zm-236.504 0c-2.721 4.423-5.46 8.894-8.22 13.42 20.408 4.996 41.447 10.32 62.837 15.958 0.421-0.319 0.843-0.636 1.25-0.941 2.366-3.691 4.687-7.296 6.96-10.811-22.018-7.422-43.087-13.412-62.827-17.626zm148.596-9.1c-7.276 1.872-14.485 4.07-21.607 6.595l0.33 0.141c11.624 4.984 22.961 10.85 33.911 17.598l1.277-0.449 1.434-0.5c-5.464-8.406-10.606-16.231-15.345-23.385zm-60.688 0c-4.74 7.156-9.88 14.978-15.345 23.385l1.434 0.5 1.277 0.449c11.047-6.807 22.491-12.718 34.241-17.739-7.122-2.524-14.334-4.723-21.607-6.595zm-262.106-8.057-0.217 0.366c-5.586 9.438-10.729 19.17-15.4 29.172 15.48-6.35 31.519-11.61 48.018-15.685 5.37-1.326 10.79-2.526 16.258-3.599l0.21-0.041c-17.807-3.828-34.215-7.239-48.869-10.213zm584.9 0c-14.657 2.974-31.06 6.384-48.869 10.213 22.337 4.367 43.908 10.884 64.486 19.325-4.732-10.13-9.95-19.989-15.617-29.538zm-386.846-0.046c-4.476 0-8.953 0.117-13.433 0.351-2.287 3.678-4.591 7.396-6.909 11.15l0.032 0.007c19.782 4.343 40.847 10.401 62.824 17.852 5.178-7.973 10.073-15.436 14.621-22.317l0.356-0.538c-18.65-4.279-37.687-6.447-56.724-6.504zm202.225 0.351c-23.75-1.24-47.64 0.812-70.924 6.154 4.649 7.029 9.662 14.671 14.977 22.855 21.992-7.456 43.066-13.517 62.856-17.859l-0.038-0.061c-2.097-3.397-4.183-6.763-6.247-10.085zm31.643 12.94c-4.772 0.73-9.64 1.584-14.599 2.556 2.675 4.354 5.368 8.755 8.074 13.198 5.052-1.228 10.063-2.435 15.041-3.624-2.818-4.193-5.657-8.239-8.516-12.13zm-278.944 0c-2.858 3.89-5.697 7.936-8.516 12.13 4.971 1.187 9.987 2.395 15.041 3.624 2.705-4.441 5.395-8.837 8.074-13.198-4.957-0.972-9.826-1.826-14.599-2.556zm292.243-1.738-0.015 0.002c-2.046 0.219-4.111 0.464-6.19 0.733 2.642 3.678 5.267 7.487 7.876 11.417l0.102 0.156c3.542-0.84 7.058-1.669 10.563-2.49-4.009-3.397-8.125-6.673-12.336-9.818zm-305.542 0c-4.215 3.149-8.329 6.424-12.336 9.818 3.498 0.82 7.023 1.65 10.563 2.49 2.642-3.986 5.301-7.846 7.978-11.573-2.089-0.271-4.158-0.516-6.205-0.735zm319.682-1.115c-1.581 0.077-3.176 0.172-4.788 0.284 3.625 2.86 7.173 5.814 10.643 8.862l3.22-0.747c1.608-0.372 3.216-0.743 4.824-1.114l4.605-1.058c-6.102-2.318-12.276-4.395-18.504-6.227zm-333.822 0c-6.231 1.834-12.406 3.91-18.504 6.227l4.605 1.058c1.608 0.371 3.216 0.742 4.824 1.114l3.22 0.747c3.47-3.047 7.021-6.003 10.643-8.862-1.61-0.112-3.206-0.207-4.788-0.284zm353.527-0.114c3.252 1.219 6.485 2.505 9.7 3.859l3.401-0.768c1.542-0.347 3.083-0.694 4.625-1.041l3.536-0.791c-7.023-0.636-14.113-1.058-21.262-1.259zm-373.232 0c-7.139 0.2-14.223 0.622-21.262 1.259l3.536 0.791c1.542 0.347 3.083 0.694 4.625 1.041l3.401 0.768c3.212-1.353 6.446-2.639 9.7-3.859zm186.616-47.095c-4.317 6.221-13.779 19.969-26.628 39.276 8.993 2.395 17.883 5.277 26.628 8.645 8.745-3.368 17.636-6.25 26.628-8.645-12.849-19.307-22.311-33.054-26.628-39.276zm115.632 37.648c1.889 3.046 3.789 6.117 5.697 9.212l0.011 0.018c4.687-0.95 9.296-1.799 13.825-2.542-1.286-1.668-2.575-3.304-3.868-4.907-5.137-0.744-10.293-1.331-15.468-1.765zm-231.264 0-0.197 0.016c-5.167 0.432-10.323 1.019-15.468 1.765-1.295 1.606-2.586 3.244-3.868 4.907l0.442 0.073c4.388 0.725 8.853 1.55 13.383 2.469 1.91-3.098 3.811-6.171 5.708-9.23zm68.409-106.728c-46.842-10.969-95.572-11.894-142.748-2.773l-0.769 0.522c-39.466 26.831-73.001 61.756-98.208 102.377 18.313 3.727 39.254 8.115 62.173 13.129 16.301-2.355 32.947-3.573 49.875-3.573l0.74 0.001c2.778 0.011 5.605 0.081 8.475 0.209 7.318-2.122 14.71-3.919 22.149-5.39 6.303-4.222 12.799-8.177 19.473-11.85 2.114-2.312 4.236-4.534 6.367-6.665 11.97-11.97 24.602-22.879 37.794-32.74 12.658-19.747 24.362-37.657 34.679-53.247zm172.31-8.983c-26.14 0-52.28 2.994-77.864 8.983 10.314 15.585 22.018 33.496 34.679 53.247l0.333 0.249c13.059 9.784 25.585 20.616 37.461 32.491 2.131 2.131 4.253 4.353 6.367 6.665 6.675 3.674 13.173 7.63 19.473 11.85 7.442 1.471 14.832 3.268 22.149 5.39 3.13-0.139 6.201-0.21 9.215-0.21 16.928 0 33.574 1.218 49.875 3.573 22.913-5.013 43.854-9.401 62.173-13.129-25.367-40.879-59.169-75.991-98.977-102.899-21.082-4.075-42.476-6.143-63.864-6.208zm15.462 119.006 0.039 0.051c0.572 0.746 1.142 1.498 1.708 2.25 0.958-0.135 1.913-0.266 2.863-0.392-0.698-0.482-1.397-0.96-2.104-1.439-0.838-0.162-1.677-0.319-2.506-0.47zm-281.098 0c-0.834 0.152-1.667 0.308-2.506 0.47l-0.356 0.242c-0.583 0.395-1.164 0.794-1.748 1.197 0.95 0.126 1.904 0.257 2.863 0.392 0.582-0.773 1.164-1.541 1.747-2.301zm134.415-43.25c-31.096 0.733-60.827 7.029-88.241 17.939-3.09 4.902-6.219 9.89-9.379 14.95 23.674-0.841 47.443 1.507 70.594 7.044 12.655-19.048 22.191-32.949 27.026-39.933zm12.268 0c4.834 6.984 14.373 20.888 27.026 39.933 23.16-5.537 46.929-7.884 70.594-7.044-2.631-4.213-5.238-8.371-7.814-12.465l-1.565-2.485c-12.249-4.875-24.964-8.829-38.054-11.776-1.086-0.245-2.175-0.482-3.266-0.713-1.297-0.274-2.599-0.539-3.901-0.793-0.522-0.102-1.045-0.202-1.566-0.3-1.844-0.348-3.695-0.676-5.553-0.984-1.059-0.175-2.12-0.344-3.185-0.507-1.036-0.158-2.074-0.31-3.116-0.456-9.711-1.36-19.585-2.173-29.6-2.41zm-110.733 22.268c-5.955 2.676-11.788 5.573-17.488 8.681-1.064 1.172-2.125 2.368-3.184 3.587 4.585-0.541 9.183-0.961 13.791-1.259 1.53-2.456 3.053-4.894 4.575-7.328zm209.198 0 2.424 3.869c1.479 2.364 2.966 4.746 4.457 7.14l0.053 0.003c4.587 0.298 9.168 0.717 13.738 1.256-1.007-1.16-2.018-2.299-3.031-3.418l-0.153-0.169c-5.703-3.109-11.537-6.007-17.488-8.681zm-310.461-88.346c-56.629 13.787-110.377 42.284-155.143 85.493 10.352 1.872 33.442 6.14 65.421 12.593 23.342-38.192 53.881-71.52 89.722-98.086zm411.724 0c35.837 26.565 66.373 59.887 89.722 98.086 31.973-6.452 55.069-10.722 65.421-12.593-44.772-43.215-98.524-71.712-155.143-85.493zm-113.553 68.869 1.697 2.675c1.534 2.421 3.079 4.864 4.64 7.339 3.228 1.315 6.424 2.692 9.589 4.13-5.191-4.906-10.498-9.618-15.926-14.144zm-184.618 0-0.25 0.209c-5.332 4.454-10.561 9.1-15.676 13.935 3.163-1.437 6.358-2.814 9.589-4.13l1.861-2.949c0.845-1.335 1.69-2.67 2.535-4.005zm92.309-54.805c-27.08 10.692-53.056 24.993-77.187 42.902-3.769 5.884-7.622 11.93-11.54 18.112 27.719-9.986 57.592-15.428 88.727-15.428 31.135 0 61.008 5.442 88.727 15.428-3.925-6.193-7.777-12.237-11.54-18.112-24.137-17.915-50.119-32.219-77.187-42.902zm40.665-13.154c-10.767 2.746-21.425 6.028-31.929 9.843 20.526 8.585 40.386 19.23 59.264 31.934-9.83-15.214-18.974-29.158-27.2-41.573zm-81.33 0c-8.262 12.467-17.449 26.477-27.335 41.777 18.883-12.707 38.744-23.351 59.264-31.934-10.51-3.817-21.171-7.099-31.929-9.843zm40.665-60.092v0c-5.339 7.679-18.596 26.894-36.945 54.488 12.322 3.229 24.499 7.146 36.468 11.749l0.477 0.184c12.121-4.683 24.453-8.659 36.945-11.933l-0.035-0.053c-18.324-27.556-31.574-46.759-36.91-54.435zm-6.127-2.32c-14.741 0.261-29.254 1.462-43.485 3.547l-1.055 0.157c-0.352 0.053-0.703 0.106-1.055 0.159l-0.525 0.082c-0.521 0.08-1.041 0.162-1.581 0.247l-1.052 0.17c-1.921 0.312-3.838 0.641-5.729 0.983l-0.557 0.1-1.044 0.192-1.042 0.195-1.042 0.198-1.041 0.201c-39.91 7.783-77.332 22.562-110.947 43.019 44.125-6.557 89.279-4.587 132.801 5.914 18.046-27.171 31.358-46.521 37.354-55.164zm12.254 0c5.993 8.639 19.294 27.972 37.324 55.119l0.03 0.045c43.511-10.501 88.673-12.473 132.801-5.914-49.792-30.294-107.948-48.149-170.155-49.25z"/>
	</g>
</svg>
